<?xml version="1.0" encoding="UTF-8"?>
<svg id="Capa_2" data-name="Capa 2" xmlns="http://www.w3.org/2000/svg" viewBox="0 0 827.47 277.9">
  <defs>
    <style>
      .cls-1 {
        fill: #6f6f6f;
      }

      .cls-2 {
        fill: #010101;
      }

      .cls-3 {
        fill: #d7d7d7;
      }

      .cls-4 {
        fill: #6e6e6e;
      }

      .cls-5 {
        fill: #e9e9e9;
      }

      .cls-6 {
        fill: #e5e5e5;
      }

      .cls-7 {
        fill: #d5d5d5;
      }

      .cls-8 {
        fill: #6a6a6a;
      }

      .cls-9 {
        fill: #6c6c6c;
      }

      .cls-10 {
        fill: #f1f1f1;
      }

      .cls-11 {
        fill: #6d6d6d;
      }

      .cls-12 {
        fill: #eee;
      }

      .cls-13 {
        fill: #d6d6d6;
      }

      .cls-14 {
        fill: #ebebeb;
      }

      .cls-15 {
        fill: #6b6b6b;
      }

      .cls-16 {
        fill: #ababab;
      }

      .cls-17 {
        fill: #ececec;
      }

      .cls-18 {
        fill: #e7e7e7;
      }

      .cls-19 {
        fill: #707070;
      }

      .cls-20 {
        fill: #f3f3f3;
      }
    </style>
  </defs>
  <g id="Capa_1-2" data-name="Capa 1">
    <g>
      <path class="cls-10" d="M359.7,260.59c-4.04-1.58-8.37-2.56-12.74-2.25.91,3.38-1.38,6.47-1.53,9.39-.17,3.22,1.73,5.69.23,9.15-.46,1.06-.19,1.13-1.69.92.75-2.93-1.37-6.1-1.37-8.61,0-5.4,4.48-9.74-2.75-14.6-5.51-3.7-7.73,3.08-8.99,7.48l-2.61-3.35,3.73-6.38c-10.56.57-3.01-6.98-5.06-11.79-1.44-3.37-4.64-2.4-7.67-2.44,1.83,4.51-4.71,5.71-5.13,7.97-.24,1.28,2.17,3.59,2.17,5.88,0,3.72-5.84,7.99.51,11.43,5.35,2.9,14.25,1.65,12.93,11.41l-3.76-5.6c-5.85-1.96-10.66-2.75-15.35-7.15-2.73,0-4.69,6.23-6.04,8.22-.63.93-4.28,5.66-5.57,4.53-.89-.77,3.08-4.06,3.63-4.97,1.29-2.12,1.64-5.24,3.1-7.38,1.33-1.94,3.93-2.96,5.14-4.6,4.91-6.62-1.93-12.13-8.5-12.26-.28,1.42,1.5,2.9,1.74,4.32.58,3.38-2.16,5.38-5.12,6.19,1.4,2.16,4.92,3.97,1.86,6.72-2.39.22.29-1.67-1.03-3.39-2.83-3.69-9.56-1.04-9.84,3.39-3.92-2.41,1.26-6.18,3.74-7.86-6.09-8.64-8.86-2.86-16.48-1.12,2.93,4.36-2.59,6.72-2.77,10.22-.2,3.8,7.35,9.5,1.64,13.73-1.75.26-.28-1.97-.66-3.76-.61-2.88-3.39-5.77-3.51-8.6-.16-3.65,3.67-6.95,3.05-10.84-4.82-.31-11.46,1.52-10.5,7.48-3.06-1.73-11.96,3.64-12.59,6.54-.3,1.38,1.28,6.32-.51,5.44-2.2-1.08-2.17-5.22-1.31-7.29,1.85-4.49,9.09-4.63,10.67-9.17l-14.9.08-1.2,5.9c-3.88-2.2-1.24-4.85-3.38-7.48,5,.72-.5-4.15-.08-6.65-8.84-2.72-5.88,8.53-12.65,8.14l5.24-8.97c-2.2-.42-4.26.56-6.38.74-.82.07-2.8.55-2.6-.73,6.4-2.96,13.58-1.55,20.02-3.58,5.35-1.69,6.63-5.09,9.95-9.15-2.37-1.78-13.66,5.73-16.85,6-.86.07-1.63.14-.77-.77,1.9-1.97,5.46-3.02,7.13-5.23-6.29.1-14.29-.8-20.43.17-2.16.34-15.92,6.62-17.26,8.01-1.64,1.69-.75,6.22-4.28,5.28.82-1.37.53-3.13,1.16-4.45.94-1.96,12.23-8.09,14.81-9.16,6.56-2.72,14.99-2.37,22.12-4.11,3.93-.96,9.91-2.12,11.37-6.23-9.61,1.12-17.78,4.55-27.72,2.23-.3-.79,2.47-1.49,2.62-1.49h13.49c2.93,0,20.79-7.81,25.65-8.81,8.98-1.84,13.35,2.12,18.59-7.63,6.3-11.73,9.89-44.31.73-54.7-5.73-6.49-12.24-5.71-19.83-3.33s-13.52,7.99-21.01,9.32l5.99-5.23c-1.88-.13-4.19.89-6.02.52-1.37-.28-1.28-.82-.73-1.27,8.37.53,14.49-5.48,21.22-8.38,3.08-1.33,5.29-1.45,8.32-2.17.89-.21,1.8-.3,1.94-1.42l-7.9-4.46c-4.58-1.76-30.5-6.22-32.56-8.28-.41-.41-.5-1.62.97-1.35,7.22,1.36,14.87,4.32,22.26,3.98-8.5-5.75-17.79-10.44-25.83-16.87-1.33-1.06-13.1-11.26-11.63-12.7,1.41-.32,1.78.79,2.62,1.49,2.93,2.43,5.54,5.31,8.69,7.79,17.26,13.55,37.63,23.74,56.87,34.15l-3.12-19.33c-8.8-2.9-17.63-6.58-25.26-11.83l.65-1.78c-.14,1.03.16,1.24,1.03,1.62,2.7,1.18,21.2,8.32,22.2,7.35l-12.38-30.68c-10.67-6.78-22.87-11.21-32.58-19.48l32.22,14.21c-1.72-4.69-3.39-9.44-4.87-14.22-1.46-4.74-1.75-12.07-5.62-14.6l1.54-1.58-.81-3.65,1.52-.02,13.48,41.57,8.98-14.22c1.07,5.5-7.14,14.27-6.73,18.27.52,5.19,9.45,16.8,11.61,22.17,3.56-20.36,11.41-39.54,18.21-58.94l1.29-1.71,1.08,1.07-6.7,19.88,11.24-8.98.75.75c-2.72,2.76-12.04,11.5-13.39,13.95-3.98,7.22-6.83,34.83-6.08,43.32.46,5.23,2.74,10.77,2.99,16.11,1.3.34,1.5-.54,2.25-1.11,3.41-2.62,6.08-6.6,9.64-9.15-1.16-7.2-1.76-14.01.1-21.18l2.24,17.97c1.08.19,1.84-.2,2.78-.59,11.59-4.83,22.47-19.25,24.62-31.59.7-4.01-1.39-7.23-1.18-11.25,3.55-.19,1.35,5.13,3.73,5.98l7.52-14.96,1.45,1.07-17.58,40.09,39.74-15.71.36-3,1.86,2.24,10.12-4.48c.5,1.94-.69,1.32-1.4,1.94-5.15,4.56-13.75,8.09-20.32,10.04l1.5,2.23c-2.25-.09-3.46-.77-5.83-.26-3.73.81-11.85,4.42-15.66,6.13-2.11.95-12.49,5.82-13.38,6.85-.44.52-.78,1.35.04,1.51,5.78,2.02,13.07,2.67,18.68,4.54,1.23.41,2.18.57,1.91,2.21l-25.5-4.94c-4.98,3.64-10.07,7.46-14.23,12.03-6.19,6.79-10.31,12.44-7.47,22.11,6.07-6.32,17.26-9.97,25.91-10.49.44-.03,6.29,1.32,8.09,1.6,5.66.89,11.35,1.73,16.95,2.91,1.08,1.1-.07,1.35-1.1,1.48-3.46.46-6.73-.72-10.13-.74l4.49,5.98-8.63-5.97c-36.94-4.01-36.17,29.52-27.72,55.4,3.1,2.14,7.17,1.01,10.43,1.56,6.61,1.13,12.12,3.11,19.19,3.67l-.75,1.5c-3.92-.03-6.79-.41-10.49-.75-.47-.04-1.53-.25-1.51.37l1.51.37c1.2,1.16,2.68,2.23,4.21,2.91,3.9,1.74,8.12,3.08,11.9,3.08h13.49c1.91,0,5.25,1.55,8.62,1.5l-.75,2.24c.73.09,1.56-.11,2.25,0,3.19.53,5.23,1.4,8.09,2.8,1.01.49,2.07-.48,1.65,1.69-7.33-1.95-14.18-4.33-21.72-4.48.96,1.32,2.48,1.96,3.75,3.36,2.53,2.75.36,3.87,6.33,4.15,5.14.24,9.74-2.28,14.28,1.45l6.35,6.75c-4.09.86-6.9-5.81-9.52-6.58-4.2-1.25-10.62,1.58-15.21.6,1.06,3.92,3.83,5.09,7.49,3.74l-2.24,1.86c4.72,2.79,7.93,7.48,6.37,13.1-2.48-4.7-3.75-10.81-9.4-13.07-3.51-1.4-7.47.23-10.76.27-1.95.03-4.84-1.35-7.2-.67,4.06,4.26,21.02,4.69,11.24,12.72,0-.04-.75.09-.73-.37.02-.41,1.51-1.66,1.47-3.02-.1-4.28-11.66-5.21-14.52-7.19-2.06-1.43-1.86-4.53-3.97-5.76-3.15-1.83-12.66-.78-11.18,3.63,1.79,5.32,4.78,3.78,8.15,5.38,2.08.98,3.34,3.53,6.33,4.16,3.83.8,11.67-.48,12.95,4.66ZM258.53,223.15h11.62c1.91,0,6.24-2.98,8.61-3-.5-1.32-4.47-.85-5.65-.77-3.05.2-5.95.88-8.9,1.58l-5.67,2.19ZM281.76,223.16c-2.91.23-5.66,1.32-8.59,1.52-4.11.28-13.87-1.39-16.37-.63-2.24.69-2.53,5.14-5.37,5.86l-11.63,3.72c4.98,1.88,9.25-.13,13.99-.46,2.03-.14,4.98,1.09,7.21.47.59-.17,1-1.7,2.22-2.42,5.84-3.45,13.6-3.49,18.55-8.06ZM336.39,229.97c-.38-.33-4.14.02-5.46-.17-2.15-.3-5.36-.91-7.37-1.61s-8.64-5.15-9.18-5.04c-2.67.52.08,4.48,1.18,5.54,1.02.99,9.95,6.09,11.37,6.61,4.95,1.81,15.13,3.31,19.85,5.62,1.65.81,1.83,2.88,3.89,3.6,4.27,1.5,9.9,1.09,14.28.33-6.96-6.59-21.6-2.59-27.32-11.25-.78-1.18-1.09-3.51-1.23-3.63ZM334.22,227.64c-2.38-3.45-7.94-4.82-11.99-4.48,2.87,3.11,7.84,4.78,11.99,4.48ZM281.77,234.38c3.73,3.35,17.62-.54,16.18-6-2-7.6-14.01,3.05-16.18,6ZM277.27,229.9c-1.08-.98-9.75,1.42-10.49,3.73,3.58-.25,10.38,1.37,10.49-3.73ZM310.13,230.76c-.54-.34-4.55-.27-5.49-.1-4.58.86-1.29,3.72-1.16,5.63s-2.04,5.91,0,7.47c4.23,2.82,13.53-.31,11.87-5.84-.35-1.17-2.95-3.11-3.97-4.32-.66-.78-.97-2.65-1.26-2.84ZM362.69,240.37c-.96-2.9-3.67-7.23-6.74-7.92-1.86-.42-3.05.53-4.78.42-3.3-.22-7.37-3.72-11.7-2.22-.5,2.72,3.1,4.63,5.25,5.61,5.54,2.54,12.11,2.71,17.98,4.12ZM281.02,244.11c-2.09-3.3,1.43-3.63,2.25-6.34-4.68-4.87-11.24.28-17.24-1.13,5.45,8.22-7.85,5.71-12.04,7.06-2.97.96-3.77,7.84-9.69,6.78l1.59,4.78c4.18.44,11.62,2.21,15.11-.61,1.2-.97,1.3-3.36,3.12-4.57,1.69-1.11,3.96-.8,5.62-1.87,1.33-.86,1.6-2.79,3.2-3.54,2.37-1.11,5.53-.34,8.07-.56ZM261.42,236.7c-1.07-.59-7.95,2.63-7.38,5.16l8.99-.75-1.61-4.41ZM293.57,236.79c-5.07.7-7.19,4.17-7.19,9.06.41,1.76,3.86,2.31,5.51,3.5,2.63,1.9,4.48,8.04,7.91,3.43,2.35-3.16-1.01-3.93-1.9-5.7-.16-.33-1.9-5.35-1.93-5.65-.21-1.97,4.39-5.58-2.41-4.64ZM363.82,240.37v.75c.49-.25.49-.5,0-.75ZM283.27,246.37c-4.07-.14-11.11-.73-8.13,5.13,3.69.5,8.93-.4,8.13-5.13Z"/>
      <path class="cls-9" d="M0,233.64l28.97-78.65,14.87.78,28.1,74.88v-56.16h14.99l.37,2.99c15.27-9,32.84-1.31,37.86,15.34,7.69,25.51-11.61,51.35-38.23,37.82v22.46h-14.99v-19.47h-15.36l-7.11-17.61-27.08.08-5.91,17.53H0ZM41.09,158.89c-2.74.12-8.67-1.18-10.3,1.06L5.25,229.89l8.91-.07,5.78-17.19,32.04.15,6.58,17.01,8.89.1-26.35-71ZM83.18,222.4c3.92,3.07,6.43,7.16,11.79,8.06,35.4,5.92,36.22-49.4,9.5-52.92-9.76-1.29-14.78,1.4-21.29,8.17v-7.49s-8.25,0-8.25,0v71.13h8.24v-26.96Z"/>
      <path class="cls-4" d="M407.66,233.64l28.97-78.65,14.87.78,28.1,74.88v-56.16h14.99l.37,2.99c4.92-3.36,11.02-4.11,16.87-3.74v14.98c-5.58-.06-11.94-.86-15.14,4.71-.47.81-2.09,4.83-2.09,5.4v34.82h-30.35l-7.11-17.61-27.08.08-5.91,17.53h-16.49ZM448.75,158.89c-2.73.12-8.67-1.18-10.3,1.06l-25.54,69.94,8.92-.07,5.78-17.19,32.04.15,6.58,17.02,8.89.1-26.35-71ZM483.35,178.23v51.66h7.49v-31.07c0-1.43,1.96-6.18,2.85-7.63,3.12-5.08,8.69-6.49,14.39-6.22v-7.5c-6.72-.57-12.56,2.56-16.87,7.49l-.37-6.74h-7.5Z"/>
      <path class="cls-9" d="M706.66,233.64h-14.99v-2.99c-11.12,6.53-33.18,5.85-35.14-10.19-1.03-8.43.86-14.79,8.23-19.32l7.43-3.44h-14.24c-1.77-21.19,23.97-30.81,39.67-19.79,3.95,2.77,9.04,10.93,9.04,15.68v40.06ZM702.91,229.89v-37.06c0-.27-1.4-4.39-1.69-5.05-7.24-16.64-37.3-12.57-39.53,6.17l8.16-.08c3.32-14.35,25.5-12.27,25.54,3.05-10.02,3.25-33.17,2.6-35.14,16.2-3.06,21.1,24.64,22.38,34.78,9.3l.37,7.49h7.5ZM690.93,194.7c-1.03-10.89-19.42-8.26-17.99,2.99l17.99-2.99Z"/>
      <path class="cls-1" d="M146.13,230.64v22.46h-14.99v-78.62h14.99c-.39,5.47,1.22,2.12,3.74,1.11,41.92-16.77,50.9,61.62,7.85,58.81-4.36-.28-7.78-1.95-11.59-3.77ZM142.38,222.4c21.05,20.7,44.62.52,39.53-25.64-3.86-19.82-26.03-26.31-39.52-11.05v-7.49s-7.5,0-7.5,0v71.13h7.49v-26.96Z"/>
      <path class="cls-19" d="M765.11,155.02v78.62h-14.99v-2.99c-3.05,1.28-5.53,2.86-8.95,3.4-40.91,6.47-41.35-65.6-.61-60.12,3.58.48,6.38,2.19,9.56,3.55v-22.46h14.99ZM761.37,158.76h-7.49v26.96c-6.25-6.43-11.85-9.41-21.16-8.04-25.48,3.74-25.26,50.39,1.31,52.96,8.85.86,13.92-2.21,19.84-8.23v7.49s7.5,0,7.5,0v-71.13Z"/>
      <path class="cls-15" d="M528.31,155.02v22.46c5.5-2.38,9.12-4.11,15.39-3.77,36.03,1.95,31.89,67.03-6.44,60.34-3.44-.6-5.45-2.7-7.85-3.39-1.85-.53-.94,1.94-1.1,2.98h-14.99v-78.62h14.99ZM525.31,158.76h-8.24v71.13h8.25s0-6.74,0-6.74c19.28,18.35,42.05,1.71,39.62-22.75-2.12-21.31-24.01-31.27-39.62-15.44v-26.21Z"/>
      <path class="cls-9" d="M777.37,225.88c-13.64-14.47-9.6-42.57,9.72-50.04,28.7-11.08,50.41,20.63,35.59,45.3-9.29,15.47-33.01,17.79-45.31,4.74ZM793.41,177.67c-27.5,3.99-26.9,50.12,1.31,52.96,39.09,3.94,38.17-58.68-1.31-52.96Z"/>
      <path class="cls-9" d="M620.22,182.23c14.22,14.78,9.13,44.18-11.31,50.69-26.3,8.37-45.35-17.13-36.2-41.42,7.24-19.22,33.44-23.91,47.52-9.28ZM594.06,177.66c-29.27,4.57-26.68,58.13,10.12,52.79,30.1-4.37,26.95-58.58-10.12-52.79Z"/>
      <path class="cls-8" d="M647.46,155.02v62.52c0,2.22,6.61,2.04,8.24,1.87v14.23h-11.62c-4.01,0-11.62-6.85-11.62-10.86v-67.76h14.99ZM643.71,158.76h-8.24v60.27c0,.36,1.37,5.2,1.66,5.82,2.62,5.52,10.41,5.28,15.58,5.04v-6.74c-2.51.4-9-1.14-9-4.12v-60.27Z"/>
      <path class="cls-10" d="M255.24,6.05c6.64,3.62,8.33,11.97,3.65,17.94-6.62-3.07-8.95-12.83-3.65-17.94Z"/>
      <path class="cls-20" d="M312.72,19.25c-4.37-3.75-6.66-12.42-2.08-16.98,2.57-.59,6.95,8.59,7.05,10.91.12,2.59-1.48,9.07-4.97,6.07Z"/>
      <path class="cls-20" d="M295.26,22.49c-2.98-6.81-3.38-14.08,4.1-17.97,5.06,5.42,3.01,15.35-4.1,17.97Z"/>
      <path class="cls-10" d="M246.55,19.49c6.84.85,12.91,10.48,7.82,16.46-6.91-2.81-9.99-9.24-7.82-16.46Z"/>
      <path class="cls-20" d="M262.28,34.47c-.99-7.76,1.51-13.78,8.62-17.21,3.78,6.3-1.2,16.87-8.62,17.21Z"/>
      <path class="cls-10" d="M221.82,44.2c-1.62,2.31-1.95,4.82-5.27,1.89-2.96-2.61-3.26-7.14-2.46-10.74,2.48-11.17,9.44.56,8.48,6.6-.22.28-.27,1.56-.75,2.25Z"/>
      <path class="cls-10" d="M186.59,107.84c-7.23.84-14.87-1.26-14.99-9.73,7.25-.85,14.65,1.37,14.99,9.73Z"/>
      <path class="cls-20" d="M179.65,111.02c3.16-.48,13.51,1.04,12.16,5.38-1.15,3.71-16.99,2.89-17.96-2.93.19-.83,4.82-2.3,5.79-2.45Z"/>
      <path class="cls-10" d="M198.55,110.06c-7.57-.1-11.01-7.43-8.93-14.16,7.55-.39,11.35,7.57,8.93,14.16Z"/>
      <path class="cls-10" d="M327.48,24.73c-.75-3.95.89-10.93,5.23-11.98,3.36,5.58,5.4,13.66-1.77,17.18-.94-.16-3.31-4.39-3.46-5.2Z"/>
      <path class="cls-20" d="M240.29,17.5c3.5,3.79,3.41,9.92.6,14-7.11-2.65-7.52-10.25-4.83-16.5.56-.42,3.74,1.97,4.23,2.5Z"/>
      <path class="cls-20" d="M209.08,47.95c4.01,6.08,3.69,12.26-1.87,17.2-5.49-4.02-4.21-14.71,1.87-17.2Z"/>
      <path class="cls-20" d="M366.48,56.9c-2.24-4.63-3.95-10.4-.37-14.89,1.57-1.97,2.12-2.09,3.67-.02,3.03,4.05,3.05,14.53-3.31,14.91Z"/>
      <path class="cls-10" d="M192.56,127.35c2.07,3.1-8.87,6.16-11.39,5.8-1.96-.28-3.81-1.86-5.82-2.11-1.64-2.17,8-5.69,9.58-5.83,1.34-.12,7.23,1.55,7.62,2.13Z"/>
      <path class="cls-12" d="M324.44,85.41c2.7,5.92-2.41,13.44-8.95,12.7-.94-6.28,2.14-12.41,8.95-12.7Z"/>
      <path class="cls-12" d="M415.09,110.91c.43,7.65-6.56,8.49-12.6,6.61-.98-7.87,6.73-8.67,12.6-6.61Z"/>
      <path class="cls-20" d="M360.45,50.95c-.58,7.49-7.05,8.98-13.49,8.23-.07-7.11,7.4-9.93,13.49-8.23Z"/>
      <path class="cls-10" d="M379.12,60.74c.19,7.1-7.78,8.6-13.43,7.42.44-7,7.3-9.93,13.43-7.42Z"/>
      <path class="cls-20" d="M382.73,46.58l.98.18c2.26,3.65-.27,8.7-4.09,10.22-9.84,3.93-5.75-10.04,3.11-10.4Z"/>
      <path class="cls-10" d="M375.24,81.03c5.73-1,3.55,8.57-1.03,10.99-7.54,3.99-6.25-9.73,1.03-10.99Z"/>
      <path class="cls-20" d="M391.18,59.18c.47,6.55-3.29,10.18-9.77,10.17-2.71-6.91,3.06-11.49,9.77-10.17Z"/>
      <path class="cls-10" d="M360.45,41.21c-3.53-4.95-6.49-10.39.39-14.27,5.23,3.76,4.49,10.34-.39,14.27Z"/>
      <path class="cls-10" d="M396.35,69.73c2.14,5.79-9.59,9.28-11.84,6.6-3.29-3.91,8.06-10.18,11.84-6.6Z"/>
      <path class="cls-20" d="M403.89,74.17c2.02,5.88,1.65,10.95-5.21,12.71-2.51-5.5-2.17-12.75,5.21-12.71Z"/>
      <path class="cls-10" d="M196.33,70.41c-6.06-.34-10.19-4.23-8.16-10.41,6.88-1.21,9.68,4.46,8.16,10.41Z"/>
      <path class="cls-12" d="M194.84,152.78c2.47-2.47,16.04-3.36,14.98,1.1-.69,2.92-14.85,4.74-14.98-1.1Z"/>
      <path class="cls-14" d="M379.93,179.72c-5.81,2.23-11.3-1.23-14.97-5.61,4.73-3.26,13.17.28,14.97,5.61Z"/>
      <path class="cls-17" d="M221.81,166.23c-5.05,2.84-10.05,4.71-14.97.39,1.81-2.01,5.91-4.13,8.6-4.13,1.4,0,7.68,1.9,6.36,3.75Z"/>
      <path class="cls-14" d="M281.01,3.02c.75,5.53-.97,12.68-7.49,12.73-.89-5.32,1.81-11.55,7.49-12.73Z"/>
      <path class="cls-17" d="M281.76,19.5c1.74,3.17-2.18,13.96-6.34,12.72-4.13-1.23,1.67-13.47,6.34-12.72Z"/>
      <path class="cls-12" d="M194.09,77.89c-5.07.41-11.72.13-12.74-5.98,5.27-1.68,12.81-.73,12.74,5.98Z"/>
      <path class="cls-17" d="M305.74,22.49c.78,5.38-1.29,11.66-7.49,11.98-.95-5.45,1.37-11.9,7.49-11.98Z"/>
      <path class="cls-17" d="M349.95,12.75c1.98,5.43,2.86,11.14-3.73,13.48-2.19-5.04-2.45-11.45,3.73-13.48Z"/>
      <path class="cls-6" d="M367.19,105.6l-6.73-.75-.7,2.67c-1.98,1.41-9.23-.69-8.3-4.16l6.73.75.7-2.67c1.98-1.41,9.23.69,8.3,4.16Z"/>
      <path class="cls-17" d="M227.06,118.32c-4.93,1.37-10.47,1.24-12.74-4.1,4.14-3.71,12.31-1.74,12.74,4.1Z"/>
      <path class="cls-12" d="M287.76,36.72c.65,5.98-4.11,10.4-9.73,11.22-.18-5.63,3.98-10.79,9.73-11.22Z"/>
      <path class="cls-12" d="M251.79,83.89c-1.51,5.09-10.15,7.53-14.22,4.11,3.65-4.65,8.57-6.09,14.22-4.11Z"/>
      <path class="cls-10" d="M349.96,131.05c-.54-5.12,5.4-9.67,10.16-7.51.56,6.07-4.84,8.24-10.16,7.51Z"/>
      <path class="cls-10" d="M261.41,91.27c-.25.45-4.66,2.73-5.68,2.92-2.66.5-5.15.22-7.69-.58-.11-5.85,16.13-7.26,13.37-2.34Z"/>
      <path class="cls-20" d="M233.55,88.64c1.5,1.57,2.03,3.58,1.76,5.73-5.38.67-10.21-2.55-10.49-8.23,3.01-.37,6.57.23,8.73,2.5Z"/>
      <path class="cls-12" d="M258.24,158.05c5.08,2.19,4.65,8.87.64,11.94-4.82-2.84-5.12-8.59-.64-11.94Z"/>
      <path class="cls-20" d="M185.84,96.61c-5.19-.03-10.47-2.25-9.74-8.23,5.62-.91,10.37,2.24,9.74,8.23Z"/>
      <path class="cls-14" d="M276.16,71.9c3.45-.68,9.32,9.21,5.15,10.45-4.79,1.42-8.69-9.75-5.15-10.45Z"/>
      <path class="cls-17" d="M371.69,125.81c1.05,5.69-3.79,8.64-8.99,8.24-.64-5.49,3.66-9.05,8.99-8.24Z"/>
      <path class="cls-14" d="M210.58,98.11c-3.09.31-8.38,0-9.94-3.18-3.21-6.54,12.08-3.58,9.94,3.18Z"/>
      <path class="cls-12" d="M221.81,134.8c.93,4.96-3.08,10.07-8.24,9.73-.93-4.96,3.08-10.07,8.24-9.73Z"/>
      <path class="cls-14" d="M389.47,126.7c4.79-.16-.21,11.25-5.83,8.53-2.45-4,1.73-8.4,5.83-8.53Z"/>
      <path class="cls-5" d="M301.25,110.09c5.17-.85,9.69,6.38,6.35,10.49-4.74-1.93-7.22-5.26-6.35-10.49Z"/>
      <path class="cls-17" d="M325.23,77.9c-.43,5.34-8.59,6.12-12.74,4.48,1.64-5.47,8.1-5.62,12.74-4.48Z"/>
      <path class="cls-20" d="M255.24,67.46c3.85-1.14,5.82,9.13,2.15,11.19-4.45-.51-5.53-10.18-2.15-11.19Z"/>
      <path class="cls-12" d="M307.96,131.03c-4.78.42-8.78-6.86-5.57-10.46,4.28,1.61,7.68,5.91,5.57,10.46Z"/>
      <path class="cls-10" d="M362.69,146.78c-5.82.62-9.06-3.41-8.98-8.98,5.54.19,8.8,3.49,8.98,8.98Z"/>
      <path class="cls-10" d="M310.24,47.94c-5.12-1.19-8.41-6.08-6.73-11.23,5.42,1.17,7.6,6,6.73,11.23Z"/>
      <path class="cls-14" d="M334.97,71.16c-1.45,5.08-8.49,5.21-12.73,3.73.37-5.72,8.57-4.75,12.73-3.73Z"/>
      <path class="cls-10" d="M248.75,72.61c-5.76.92-5.43-10.39-1.8-11.18,3.33-.72,4.27,8.97,1.8,11.18Z"/>
      <path class="cls-20" d="M340.21,65.18c-2.18,5.64-9.26,3.25-13.48,1.47-1.5-1.65,5.52-3.44,6.48-3.47,2.47-.08,4.68,1.5,7,2Z"/>
      <path class="cls-17" d="M261.53,120.56c-2.77.96-4.72,1.98-7.82,1.47-.85-.14-5.45-2.11-4.91-3.33,1.31-2.97,12.37-2.92,12.73,1.85Z"/>
      <path class="cls-10" d="M272.77,53.19c-5.06.28-8.92-5.06-6.7-9.71,5.25.12,7.49,4.93,6.7,9.71Z"/>
      <path class="cls-12" d="M330.16,37.49c3.82-1.19,6.41,9.34,2.88,10.44-4.13,1.29-6.47-9.32-2.88-10.44Z"/>
      <path class="cls-12" d="M239.8,110.85c3.98-1.03,11.18-1.79,11.98,3.36-3.54,3.08-10.94,1.38-11.98-3.36Z"/>
      <path class="cls-17" d="M296,80.15c-.25,5.11-4.77,8.42-9.73,8.23-.34-5.15,4.78-9.16,9.73-8.23Z"/>
      <path class="cls-5" d="M325.98,41.96c.52,5.5-4.92,8.02-9.74,7.48.16-5.44,4.61-8.11,9.74-7.48Z"/>
      <path class="cls-12" d="M373.18,148.28c-5.29-.76-9.14-4.04-8.23-9.73,5.36.57,8.69,4.37,8.23,9.73Z"/>
      <path class="cls-12" d="M300.5,68.17c.02,5.44-5.84,7.32-10.49,6.73-.02-5.44,5.84-7.32,10.49-6.73Z"/>
      <path class="cls-5" d="M327.48,24.73c-.14,4.96-5.03,8.02-9.74,7.48-.39-5.7,4.65-8.05,9.74-7.48Z"/>
      <path class="cls-14" d="M251.03,162.51c1.82,4.63.62,9.17-4.1,11.23-2.88-3.73-.92-10.68,4.1-11.23Z"/>
      <path class="cls-17" d="M285.52,19.5c3.74-.45,6.28,1.18,7.86,4.49,1.13,2.38,2.04,5.11-1.72,3.98s-6.4-4.41-6.14-8.47Z"/>
      <path class="cls-20" d="M197.54,49.5c5.57-1.26,5.24,14.43-.42,9.26-2.22-2.03-2.07-8.7.42-9.26Z"/>
      <path class="cls-5" d="M326.72,32.97c.01,5.03-5.24,7.55-9.74,7.48-.3-5.64,4.55-8.33,9.74-7.48Z"/>
      <path class="cls-17" d="M229.31,35.97c3.8-2.05,9.41-1.73,11.25,2.61.24,1.74-.65.93-1.75,1.23-4.12,1.13-7.68,1-9.51-3.09-.08-.19.07-.5,0-.75Z"/>
      <path class="cls-10" d="M212.64,105.77c7.03-.39,8.23,5.44.49,5.78-1.46.06-7.36-1.51-5.95-3.72,1.36-1,3.85-1.96,5.46-2.05Z"/>
      <path class="cls-17" d="M260.56,102.09c2.8,2.5,2.33,6.46.96,9.49-5.15-.23-6.56-6.28-3.76-10.16.87-.6,2.15.09,2.8.68Z"/>
      <path class="cls-14" d="M324.47,16.5c.96,5.55-2.91,9.03-8.23,8.98-.73-5.31,3.43-8.29,8.23-8.98Z"/>
      <path class="cls-17" d="M324.48,51.69c.98,6.21-14.48,9.67-9.4,2.95,2.43-3.21,5.65-3.21,9.4-2.95Z"/>
      <path class="cls-12" d="M311.73,38.21c-5.05-.83-6.84-6.04-5.23-10.48,5.05.46,7.27,6.04,5.23,10.48Z"/>
      <path class="cls-12" d="M333.47,59.92c-2.49-2.97,9.94-6.93,11.98-1.86,0,1.03-4.59,3.11-5.79,3.22-.65.06-5.99-1.11-6.19-1.36Z"/>
      <path class="cls-18" d="M336.86,8.27c3.62,1.68,7.85,6.7,4.46,10.47-3.27.98-8.14-7.91-4.46-10.47Z"/>
      <path class="cls-14" d="M373.94,134.8c-.47-3.35.12-6.78,3.71-7.92,7.35-2.33,3,10.22-3.71,7.92Z"/>
      <path class="cls-17" d="M224.82,143.03c-.62-4.83.52-9.11,5.6-10.48,4.63,2.9-3.81,12.32-5.6,10.48Z"/>
      <path class="cls-17" d="M373.19,79.4c-.8-4.31.91-9.89,6.04-8.67,2.39,4.43-1.18,9.22-6.04,8.67Z"/>
      <path class="cls-17" d="M394.17,77.15c.15,3.46.58,7.81-3.55,8.82-6.3,1.53-2.77-10.39,3.55-8.82Z"/>
      <path class="cls-14" d="M319.24,15c-.53-5.09.13-8.48,5.59-9.73,3.45,3.87-.97,9.91-5.59,9.73Z"/>
      <path class="cls-14" d="M208.32,122.83c1.75,2.41-10.76,7.17-12.72,2.61,3.34-3.82,8.15-4.12,12.72-2.61Z"/>
      <path class="cls-12" d="M219.56,155.01c-4.94-.3-9.01-2.82-8.24-8.23,4.91-.56,9.25,3.15,8.24,8.23Z"/>
      <path class="cls-17" d="M283.26,71.15c-3.91.06-5.85-4.17-5.08-7.68,1.63-7.47,8.58,3.13,5.08,7.68Z"/>
      <path class="cls-12" d="M268.73,105.65c3.78-1.13,5.58,8.72,1.35,10.4-4.08-.48-4.29-9.53-1.35-10.4Z"/>
      <path class="cls-17" d="M239.8,154.26c-4.82.09-9.04-3.06-8.24-8.23,5.22-.67,8.51,3.19,8.24,8.23Z"/>
      <path class="cls-14" d="M212.07,134.8c-.08,4.83-5.18,8.05-9.73,8.23.21-5.22,4.61-8.72,9.73-8.23Z"/>
      <path class="cls-5" d="M338.67,30.02c1.82,3.68,2.88,8.61-1.82,10.44-3.46-3.23-3.98-10.22,1.82-10.44Z"/>
      <path class="cls-10" d="M232.39,52.53c4.19-2.38,5.05,9.63.95,10.35-3.96.7-3.55-8.87-.95-10.35Z"/>
      <path class="cls-5" d="M315.49,124.31c-1.18-4.38,9.48-8.19,10.48-4.84-.67,5.19-6.31,5.15-10.48,4.84Z"/>
      <path class="cls-18" d="M207.37,85.58c.71.78,1.3,2.66.64,3.59-4.09,2-10.36.03-9.43-5.28,2.34-.15,7.13-.13,8.79,1.69Z"/>
      <path class="cls-14" d="M242.79,107.84c-2.66,1.24-7.34.67-9.33-1.52-5.05-5.56,10.23-5.01,9.33,1.52Z"/>
      <path class="cls-12" d="M417.41,124.32c.87,5.76-3.34,7.05-8.25,6.74-.84-6.16,2.78-7.41,8.25-6.74Z"/>
      <path class="cls-10" d="M305.4,100.36c3.7-1.1,6.92,8.24,3.71,10.47-3.7-.21-7-9.49-3.71-10.47Z"/>
      <path class="cls-12" d="M209.08,47.95c-3.25-.73-6.14-5.01-4.49-8.24,4.77.54,8.42,2.96,7.49,8.24-.93-.11-2.16.18-3,0Z"/>
      <path class="cls-14" d="M172.36,125.06c-.03-4.17,11.39-6.14,11.98-3.35-1.78,4.27-8.09,4.82-11.98,3.35Z"/>
      <path class="cls-10" d="M361.16,88.42c1.43,4.23.63,9.03-4.45,9.7-1.55-4.43-1.49-10.17,4.45-9.7Z"/>
      <path class="cls-20" d="M284.76,49.45c.88,5.23-2.41,8.64-7.49,8.98-.9-4.95,2.72-8.64,7.49-8.98Z"/>
      <path class="cls-17" d="M233.81,43.46c4.39-1.14,9.29-1.62,11.24,3.35-3.63,2.6-10.27,1.57-11.24-3.35Z"/>
      <path class="cls-10" d="M230.05,155.01c-3.46,1.64-10.67-5.81-7.5-7.87,2.56-1.67,9.4,4.18,7.5,7.87Z"/>
      <path class="cls-18" d="M393.42,151.28c.66,5.45-4.48,6.85-8.99,6.73-.66-5.45,4.48-6.85,8.99-6.73Z"/>
      <path class="cls-17" d="M240.2,56.94c5.13-1.11,1.44,16.08-2.48,8.41-1.22-2.38.28-7.93,2.48-8.41Z"/>
      <path class="cls-12" d="M338.71,94.37c-4.55-.64-9.39-3.95-8.98-8.98,4.55.64,9.39,3.95,8.98,8.98Z"/>
      <path class="cls-17" d="M202.33,101.12c3.38-.98,6.33-2.55,9.68-.32,5.8,3.84-9.4,6.66-9.68.32Z"/>
      <path class="cls-10" d="M324.48,111.59c.24,4.77-5.71,7.39-9.74,5.98.79-4.84,5.19-6.7,9.74-5.98Z"/>
      <path class="cls-6" d="M352.2,41.96c-.15,5.59-6.48,4.75-10.49,3.73,1.16-4.79,6.46-5.29,10.49-3.73Z"/>
      <path class="cls-10" d="M217.31,74.91c1.85,3.98-.64,9.53-5.23,9.73-.47-4.1.18-9.6,5.23-9.73Z"/>
      <path class="cls-14" d="M379.93,37.46c.61,4.24-1.26,8.3-5.96,8.21-2.1-4.4,1.05-9.01,5.96-8.21Z"/>
      <path class="cls-18" d="M224.06,64.41c-3.73,1.41-9.75,1.35-9.73-3.73,3.73-1.41,9.75-1.35,9.73,3.73Z"/>
      <path class="cls-5" d="M337.97,52.43c-1.23-5.04,9.87-4.45,10.49-1.85.71,3.03-8.5,3.83-10.49,1.85Z"/>
      <path class="cls-6" d="M229.31,68.17c.39,1.76-.26,1.2-.96,1.66-2.24,1.48-9.47,3.59-10.27.19-.66-2.79,8.89-4.43,11.24-1.85Z"/>
      <path class="cls-17" d="M355.95,28.49c.16,4.49-6.53,7.04-9.74,4.1,1.72-4.14,5.64-5.47,9.74-4.1Z"/>
      <path class="cls-18" d="M195.59,86.13c-4.72.68-8.64-1.65-8.24-6.73,4.34.05,8.87,1.6,8.24,6.73Z"/>
      <path class="cls-14" d="M243.54,166.25c-.63,4.4-3.34,8.7-8.24,8.23-.02-4.44,3.66-8.63,8.24-8.23Z"/>
      <path class="cls-17" d="M345.47,38.95c.97-4.7,7.18-5.47,10.48-2.6-1.48,4.34-6.93,3.76-10.48,2.6Z"/>
      <path class="cls-5" d="M338.72,148.28c-1.3-3.92.01-8.85,4.1-10.48,3.98,2.07-2.39,12.07-4.1,10.48Z"/>
      <path class="cls-5" d="M360.45,41.21c.28.39,1.33.29,1.53,1.88.47,3.82-3.07,6.86-6.77,6.35-1.03-6.47,2.06-5.67,5.24-8.24Z"/>
      <path class="cls-12" d="M269.02,125.06c-3.77,1.67-7.23,2.17-11.24.75-.2-5.9,13.48-3.69,11.24-.75Z"/>
      <path class="cls-18" d="M203.83,133.31c1.45,4.36-10.32,7.88-10.47,4.87,1.98-3.77,6.3-5.26,10.47-4.87Z"/>
      <path class="cls-20" d="M221.06,81.64c.66,4.78-.26,8.94-5.24,10.48-.47-4.43-.02-9.71,5.24-10.48Z"/>
      <path class="cls-12" d="M245.04,100.35c-5.08.02-5.14-6-3.73-9.73,4.76,1.23,5.37,5.53,3.73,9.73Z"/>
      <path class="cls-18" d="M399.42,61.43c.44,5.44-3.52,6.52-8.24,5.98.26-5.49,3.15-6.56,8.24-5.98Z"/>
      <path class="cls-10" d="M205.13,77.34c5.07,5.57-8.58,5.71-8.04-.93,2.38-.67,6.2-1.09,8.04.93Z"/>
      <path class="cls-17" d="M253.28,105.6c-5.12-.1-5.19-5.06-3.73-8.98,4.79-.06,5.19,5.39,3.73,8.98Z"/>
      <path class="cls-6" d="M228.21,46.46c3.47-.75,3.2,9.23-.77,9.72-3.04-1.68-1.99-9.12.77-9.72Z"/>
      <path class="cls-17" d="M234.52,73.45c2.15,3.43-8.27,4.66-10.45,2.94-.46-4.34,9.5-4.45,10.45-2.94Z"/>
      <path class="cls-18" d="M228.56,28.48c-.33,2.92.06,4.86.75,7.49.07.25-.08.56,0,.75l-3.38,1.47c-3.45-2.04-1.59-10.62,1.88-10.46l.75.75Z"/>
      <path class="cls-5" d="M288.5,9.01c.65,4.81-2.73,8.22-7.49,8.23.34-4.46,2.92-7.77,7.49-8.23Z"/>
      <path class="cls-5" d="M263.79,18.74c-.96-3.16-2.01-4.86-.16-8.01,3.56-6.08,6.68,8.84.16,8.01Z"/>
      <path class="cls-14" d="M406.84,122.89c1.64,3.49.89,7.34-3.25,8.14-3.35-3.18-1.68-8.94,3.25-8.14Z"/>
      <path class="cls-12" d="M399.36,125.87c1.91,4.42-1.65,7.28-5.93,7.43-.76-4.72.88-7.83,5.93-7.43Z"/>
      <path class="cls-14" d="M334.16,151.22h-2.14c-3.72-13.74,7.36-13.27,2.14,0Z"/>
      <path class="cls-6" d="M237.36,78.07c6.44-1.12,5.52,3.09.82,4.57-7.86,2.48-7.05-3.49-.82-4.57Z"/>
      <path class="cls-17" d="M274.27,43.45c-3.92.07-7.17-3.6-6.74-7.48,4.59-.69,7.57,2.97,6.74,7.48Z"/>
      <path class="cls-12" d="M268.27,91.38c.64,4.21-2.4,8.23-6.74,8.23-.71-4.6,2.4-7.44,6.74-8.23Z"/>
      <path class="cls-17" d="M288.5,95.12c1.31,3.81-.42,7.96-4.48,8.98-1.78-3.83-.1-8.85,4.48-8.98Z"/>
      <path class="cls-14" d="M222.56,41.96c.39-.49,3.93-3.53,4.49-2.99,2.74,4.5-4.68,14.31-5.24,5.24.48-.69.53-1.97.75-2.25Z"/>
      <path class="cls-12" d="M391.92,50.19c.75,4.98-1.76,7.49-6.74,6.74,0-4.19,2.42-7.17,6.74-6.74Z"/>
      <path class="cls-10" d="M296.75,58.43c.82,4-2.97,7.47-6.74,7.48-.59-4.44,2.14-7.89,6.74-7.48Z"/>
      <path class="cls-14" d="M227.81,27.73l-.75-5.24c4.38.22,7.47,2.84,6.74,7.48l-5.24-1.49-.75-.75Z"/>
      <path class="cls-5" d="M240.55,145.29c3.24-.44,6.59,1.97,7.18,5.2.97,5.29-9.13-1-7.18-5.2Z"/>
      <path class="cls-5" d="M237.54,134.05c.83,2.7,1.41,5.01-.4,7.45-4.16,5.62-6.13-7.94.4-7.45Z"/>
      <path class="cls-5" d="M372.44,169.24c-4.25-.27-7.99-2.06-8.24-6.73,4.21-.64,8.24,2.39,8.24,6.73Z"/>
      <path class="cls-20" d="M284.01,30.73c.44,3.88-2.82,7.55-6.74,7.48-.59-4.44,2.14-7.89,6.74-7.48Z"/>
      <path class="cls-18" d="M365.69,179.72c-4.44.59-7.9-2.13-7.49-6.73,3.95-.04,7.59,2.65,7.49,6.73Z"/>
      <path class="cls-18" d="M340.77,168.31c-.61.64-2.46.99-3.32,1.58l-1.65-1.13c-1.41-4.64,4.79-8.25,5.82-5.01.24,1.34.09,3.57-.86,4.56Z"/>
      <path class="cls-14" d="M364.19,168.49c-4.22-.69-8.04-1.6-7.48-6.73,4.12-.12,8.09,2.16,7.48,6.73Z"/>
      <path class="cls-5" d="M215.07,158.02c.45,4.04-9.24,4.93-9.73,2.6,1.62-3.61,6.45-3.94,9.73-2.6Z"/>
      <path class="cls-6" d="M244.3,9.76c5.66-1.19,8.67,9.91,2.43,6.93-2.62-1.25-2.59-4.36-2.43-6.93Z"/>
      <path class="cls-5" d="M351.11,170c2.92-.87,6.92,6.48,3.64,7.44s-6.81-5.08-3.64-7.44Z"/>
      <path class="cls-6" d="M319.98,104.85c1.23.13,5.05-.81,4.49,1.11-1.63,3.37-4.41,5.11-8.23,4.88-.61-3.22,1.71-4.21,3.74-5.99Z"/>
      <path class="cls-18" d="M380.68,160.27c3.58-1.12,7.63-.55,8.99,3.35-.55,2.66-10.24.53-8.99-3.35Z"/>
      <path class="cls-17" d="M290.75,43.45c1.18,3.61-.08,8.25-4.48,8.24-1.18-3.61.08-8.25,4.48-8.24Z"/>
      <path class="cls-18" d="M295.25,50.2c.12,4.11-2.16,8.09-6.74,7.48-.04-3.95,2.65-7.58,6.74-7.48Z"/>
      <path class="cls-6" d="M295.25,35.96c-4.28.62-8.28-1.27-8.24-5.98,3.88-.25,7.73,1.87,8.24,5.98Z"/>
      <path class="cls-10" d="M346.91,173.69c-4.66.16-5.58-5.83-1.81-8.18,3.6,1.64,3.56,5.15,1.81,8.18Z"/>
      <path class="cls-6" d="M353.71,68.16c.35-.55,2.5-3.72,2.73-3.78,4.67-1.28,3.83,6.96.64,8.26-1.92.78-.92-3.9-3.36-2.99.17-.28-.17-1.23,0-1.5Z"/>
      <path class="cls-18" d="M367.19,86.13c1.17,3.93,1.06,7.62-3.73,8.24-1.53-3.8-1.06-8.14,3.73-8.24Z"/>
      <path class="cls-14" d="M290.75,7.51c-5.92,1.58-8.31-10.91-2.21-6.4,2.34,1.73,2.49,3.6,2.21,6.4Z"/>
      <path class="cls-14" d="M319.98,104.85c-7.08-.74.82-7.68,5.24-5.99.01,3.62-3.34,4.33-5.24,5.99Z"/>
      <path class="cls-18" d="M390.19,141.03c.68.62,2.33,3.7,1.73,4.25-4.32.34-7.77-1.43-8.24-5.98,2.02-.2,4.98.35,6.5,1.73Z"/>
      <path class="cls-6" d="M380.68,167.74c-4.01.55-7.58-1.73-7.49-5.98,3.82-.5,8.04,1.73,7.49,5.98Z"/>
      <path class="cls-6" d="M358,81.04c5.1-1.11,8.89,3,3.4,4.19-5.1,1.11-8.89-3-3.4-4.19Z"/>
      <path class="cls-18" d="M337.96,85.38c-3.89.43-7.55-2.8-7.49-6.73,3.89-.43,7.55,2.8,7.49,6.73Z"/>
      <path class="cls-6" d="M236.76,97.41c2.56,3.92-9.13,4.23-8.95-.79,1.68-1.28,8.13-.46,8.95.79Z"/>
      <path class="cls-14" d="M314.37,59.93c2.82-.66,4.92,7.35,1.49,8.97-2.89-.92-4.32-8.31-1.49-8.97Z"/>
      <path class="cls-18" d="M353.71,68.16c-.17.27.17,1.22,0,1.5-1.24,1.96-2.6,2.24-4.86,2.3-9.21.26,0-6.82,4.86-3.8Z"/>
      <path class="cls-14" d="M190.34,88.38c3.15-.94,8.06-.92,8.24,3.34-.83,2.75-9.08.46-8.24-3.34Z"/>
      <path class="cls-6" d="M212.73,75.55c-.72.41-2.04.2-2.55-.63-1.35-1.93,1.08-8.33,3.76-7.5,2.77,1.06-.37,7.65-1.21,8.13Z"/>
      <path class="cls-17" d="M312.49,26.23c-4.4-.15-5.94-4.28-5.24-8.23,4.13.3,5.91,4.52,5.24,8.23Z"/>
      <path class="cls-18" d="M219.58,98.1c-.82-2.55-1.32-4.39.4-6.7,3.97-5.33,6.03,7.46-.4,6.7Z"/>
      <path class="cls-18" d="M313.23,101.85c-4.13-.3-5.91-4.52-5.24-8.23,4.4.15,5.94,4.28,5.24,8.23Z"/>
      <path class="cls-10" d="M254.78,149.77c-4.14-.68-6.65-3.14-5.99-7.48,4.25.06,6.83,3.21,5.99,7.48Z"/>
      <path class="cls-12" d="M364.19,59.18c1.13,3.45,1.88,8.45-2.98,8.23-1.2-3.18-1.48-8.54,2.98-8.23Z"/>
      <path class="cls-5" d="M302.76.03c6.43-.76,4.37,12.03.4,6.7-1.72-2.31-1.22-4.15-.4-6.7Z"/>
      <path class="cls-18" d="M355.2,61.43c.47,3.79-8.48,5.02-8.99,2.6,1.19-3.87,5.85-3.87,8.99-2.6Z"/>
      <path class="cls-18" d="M408.41,140.79c-1.84.82-9.54-.77-8.99-3.35s10.37-.82,8.99,3.35Z"/>
      <path class="cls-14" d="M342.34,21.89c1.5.86,3.05,8.14-.27,8.11-3.62-.03-3.48-10.25.27-8.11Z"/>
      <path class="cls-5" d="M352.95,90.63c1.24,3.4,1.44,6.92-2.59,8.23-3.48-2.73-1.24-7.4,2.59-8.23Z"/>
      <path class="cls-5" d="M367.19,151.28c.3,4.18-3.92,6.12-7.49,5.98-.15-4.19,3.57-6.58,7.49-5.98Z"/>
      <path class="cls-6" d="M391.67,86.97c2.55-.23,2.33,4.57.31,6.33-4.76,4.15-5.28-5.34-.31-6.33Z"/>
      <path class="cls-14" d="M351.45,74.16c-1.08,4.49-5.02,4.97-8.99,4.48,1.01-4.05,5.19-5.8,8.99-4.48Z"/>
      <path class="cls-17" d="M400.16,144.53c-4.25-.21-7.84-2-7.49-6.73,3.76.58,7.69,2.4,7.49,6.73Z"/>
      <path class="cls-6" d="M357.45,20.25c.8,4.55-1.49,7-5.99,6.73-.5-3.57,2.29-6.97,5.99-6.73Z"/>
      <path class="cls-18" d="M385.92,92.12c.71,2.55,1.61,4.43-.69,6.42-5.08,4.39-5.24-6.6.69-6.42Z"/>
      <path class="cls-14" d="M384.42,77.9c1.62,3.15,4.34,7.59-.72,8.97-1.13-3.29-3.25-4.55-.95-8.02.47-.71-.07-1.35,1.67-.96Z"/>
      <path class="cls-6" d="M389.67,113.83c-1.28,1.23-9.42-2.21-8.99-5.23,3.45-.39,9.2.99,8.99,5.23Z"/>
      <path class="cls-14" d="M382.93,150.53c.95,4.43-2.94,6.43-6.74,6.73-.56-4.59,2.83-6.13,6.74-6.73Z"/>
      <path class="cls-5" d="M328.97,55.43c-3.46.39-5.18-7.45-2.59-8.22,3.83-1.15,3.93,5.85,2.59,8.22Z"/>
      <path class="cls-6" d="M406.16,88.38c.43,4.06-4.39,7.1-7.49,4.09.71-3.92,4.07-4.43,7.49-4.09Z"/>
      <path class="cls-5" d="M358.2,78.64c-.47-4.68,9.69-3.1,9.72-1.12-2.26,3.11-6.54,1.92-9.72,1.12Z"/>
      <path class="cls-5" d="M370.19,71.17c.34,4.07-8.35,4.39-8.99,1.85-.71-2.86,7.28-3.13,8.99-1.85Z"/>
      <path class="cls-18" d="M355.2,149.76l-8.56.77c-2.33-3.55,6.82-4.96,8.23-3.05l.33,2.28Z"/>
      <path class="cls-6" d="M367.95,158.01c-.8-2.75,1.55-6.2,4.27-6.62,5.55-.86-.5,7.79-4.27,6.62Z"/>
      <path class="cls-18" d="M368.7,38.21c-.98-1.32-2.72-8.76.38-8.26,3.43.55,3.89,8.3-.38,8.26Z"/>
      <path class="cls-5" d="M389.67,125.06c-1.03.96-9.55-2.13-8.99-5.23,3.65-.41,8.64.9,8.99,5.23Z"/>
      <path class="cls-5" d="M207.58,111.59c3.29-.71,7.42,6.51,4.09,7.48s-4.95-5.24-4.09-7.48Z"/>
      <path class="cls-14" d="M359.7,150.53c.72,4.73-4,5.25-7.48,5.98-.75-4.42,4.01-5.65,7.48-5.98Z"/>
      <path class="cls-5" d="M400.91,120.59c-.16,3.78-6.59,2.34-8.78.93-3.05-1.97,2.1-2.62,3.9-2.49s3.12,1.28,4.88,1.56Z"/>
      <path class="cls-6" d="M399.38,101.16l-.4,2.26c-2.11.76-4.16,1.04-6.34.34-6.87-2.2,3.63-5.03,6.74-2.6Z"/>
      <path class="cls-14" d="M381.43,147.53c-3.77-.45-6.76-2.54-5.99-6.73,3.7-.51,6.73,3.08,5.99,6.73Z"/>
      <path class="cls-17" d="M394.92,108.59c-1.27,1.73-10.15-.12-8.99-3.73.83-.85,9.49.56,8.99,3.73Z"/>
      <path class="cls-18" d="M215.02,126.62l-.4,2.26c-4.07,2.97-10.2-.65-7.31-2.31,2.71-.78,5.04-1.14,7.71.06Z"/>
      <path class="cls-17" d="M303.99,54.93c.29.31,1.11,1.84,1.01,1.99-3.37,1.5-8.25.26-8.99-3.73,2.76-.08,5.9-.45,7.98,1.74Z"/>
      <path class="cls-18" d="M234.55,161.77c.33,1.71-.13,1.19-.95,1.66-2.63,1.49-5.77,1.72-8.03-.55,1.65-3.86,6.04-2.4,8.99-1.1Z"/>
      <path class="cls-12" d="M398.45,94.5c1.26-.2,5.11.8,4.71,2.48-.54,2.27-9.76,3.06-7.89-.39.86-.82,1.98-1.91,3.18-2.09Z"/>
      <path class="cls-12" d="M201.77,115.15c-1.17-1.17-.92-4.21-.93-5.8,7.57-.57,5.6,10.5.93,5.8Z"/>
      <path class="cls-6" d="M212.83,53.19c2.14-.37,8.57-.3,7.48,3.34-.89,2.95-8.25.27-7.48-3.34Z"/>
      <path class="cls-17" d="M377.44,120.06c.65.73,1.11,1.74.99,2.75-2.74.22-4.7.1-6.76-1.85-4.57-4.34,3.36-3.58,5.77-.9Z"/>
      <path class="cls-6" d="M255.55,41.96c5.86.69,1.66,12.19-.95,6.54-1.31-2.83.34-3.93.95-6.54Z"/>
      <path class="cls-14" d="M198.54,119.88l-.39,2.26c-1.7.64-3.35.81-5.17.7-8.42-.51,1.38-5.84,5.57-2.96Z"/>
      <path class="cls-6" d="M226.31,121.33c2.59-.67,3.6-2.12,6.42-.83,5.82,2.67-5.82,6.53-6.42.83Z"/>
      <path class="cls-5" d="M234.55,168.5c.24,3.69-3.17,6.48-6.74,5.98.59-3.59,2.73-6.53,6.74-5.98Z"/>
      <path class="cls-6" d="M196.33,131.81c-.57,3.98-5.22,3.96-8.24,3.73.61-3.68,5.08-5.16,8.24-3.73Z"/>
      <path class="cls-5" d="M296.75,43.45c-3.52.17-7.18-1.27-7.49-5.23,3.65-.52,7.09,1.37,7.49,5.23Z"/>
      <path class="cls-17" d="M250.29,53.18c-2.89,1.26-7.76.72-8.24-2.98,3.05-.91,7.7-.93,8.24,2.98Z"/>
      <path class="cls-6" d="M226.31,170.73c-2.78,1.46-5.05,1.87-8.24,1.51-1.36-5.19,10.23-4.33,8.24-1.51Z"/>
      <path class="cls-20" d="M399.41,110.84c.47,3.76-2.35,5.83-5.99,5.23-.4-4.5,1.78-5.59,5.99-5.23Z"/>
      <path class="cls-5" d="M185.84,85.38c-2.8.61-7.62,1.9-8.24-2.23,2.79-.87,7.76-2.07,8.24,2.23Z"/>
      <path class="cls-6" d="M373.19,101.85c-3.02.18-8.67.42-8.24-3.74,3.02-.23,7.67-.25,8.24,3.74Z"/>
      <path class="cls-5" d="M204.57,72.65c-3.63-.25-5.65-2.21-5.24-5.98,4.44-.26,5.91,1.62,5.24,5.98Z"/>
      <path class="cls-18" d="M264.52,81.64c-6.04-.57-1.73-11.36.84-5.65,1.11,2.48-.35,3.34-.84,5.65Z"/>
      <path class="cls-3" d="M260.78,63.66c-2.81,1.02-7.7,1.62-8.24-2.23,2.8-.61,7.62-1.9,8.24,2.23Z"/>
      <path class="cls-6" d="M255.53,59.17c-3.21.35-6.91.17-7.49-3.74l5.99.37,1.5,3.36Z"/>
      <path class="cls-6" d="M256.29,140.05c2.37-.32,4.54,1.85,4.56,4.11.06,5.79-6.38.07-4.56-4.11Z"/>
      <path class="cls-14" d="M338.71,101.1c-3.6-.59-6.53-2.72-5.99-6.73,3.2.36,6.15,3.47,5.99,6.73Z"/>
      <path class="cls-7" d="M370.19,229.14c3.53-.05,8.16-2.25,11.23.39l-9.73,1.86c-.69-.11-1.52.08-2.25,0l.75-2.24Z"/>
      <path class="cls-6" d="M406.91,135.54c-.44-3.77,7.06-2.18,7.49-.35-1.03,3.84-5.1.93-7.49.35Z"/>
      <path class="cls-18" d="M241.31,143.03c-1.28-3.1-.76-5.35,1.87-7.47,1.76-.03,1.99,8.07-1.87,7.47Z"/>
      <path class="cls-7" d="M315.49,71.91c2.71-2.75,5.72-7.78,9.74-8.23-2.42,3.52-6.05,5.99-8.99,8.98l-.75-.75Z"/>
      <path class="cls-18" d="M252.18,38.22c3.07-.63,1.98,5.91-.76,6.72-2.19-1.3-1.13-6.33.76-6.72Z"/>
      <path class="cls-14" d="M246.56,39.71c-.65-.46-1.66-6.52,1.1-5.98,3.2.62,1.96,8.12-1.1,5.98Z"/>
      <path class="cls-3" d="M299,47.94c-1.4.82-8.26-1.01-6.74-2.99,1.05-1.36,7.21.02,6.74,2.99Z"/>
      <path class="cls-16" d="M343.21,220.16c3,.24,6.49-.37,9.38,0,1.09.14,2.33.57,1.11,1.5-3.74-.02-7.5.04-11.24,0l.75-1.5Z"/>
      <rect class="cls-10" x="311.74" y="112.34" width="1.49" height="1.49"/>
      <path class="cls-16" d="M331.97,220.91v.75l-1.51-.37c-.02-.63,1.04-.42,1.51-.37Z"/>
      <path class="cls-10" d="M332.35,262.09c.49.25.49.5,0,.75v-.75Z"/>
      <path class="cls-2" d="M363.82,240.37c.49.25.49.5,0,.75v-.75Z"/>
      <path class="cls-7" d="M41.09,158.89l26.35,71-8.89-.1-6.58-17.01-32.04-.15-5.78,17.19-8.91.07,25.54-69.94c1.63-2.25,7.57-.94,10.3-1.06ZM48.71,204.43l-12.36-36.7-13.11,36.7h25.48Z"/>
      <path class="cls-7" d="M83.18,222.4v26.96h-8.24v-71.13h8.25s0,7.49,0,7.49c6.51-6.77,11.53-9.46,21.29-8.17,26.72,3.52,25.9,58.84-9.5,52.92-5.36-.9-7.88-4.99-11.79-8.06ZM97.24,184.42c-20.45,2.77-18.34,41.07,3.53,39.51,20.29-1.45,19.23-42.59-3.53-39.51Z"/>
      <path class="cls-7" d="M448.75,158.89l26.35,71-8.89-.1-6.58-17.02-32.04-.15-5.78,17.19-8.92.07,25.54-69.94c1.63-2.25,7.57-.94,10.3-1.06ZM456.37,204.43l-12.36-36.7-13.11,36.7h25.48Z"/>
      <path class="cls-3" d="M483.35,178.23h7.5s.37,6.74.37,6.74c4.31-4.93,10.15-8.06,16.87-7.49v7.5c-5.7-.27-11.27,1.14-14.38,6.22-.89,1.45-2.85,6.2-2.85,7.63v31.07h-7.49v-51.66Z"/>
      <path class="cls-13" d="M702.91,229.89h-7.5s-.37-7.48-.37-7.48c-10.14,13.08-37.84,11.8-34.78-9.3,1.97-13.59,25.11-12.94,35.14-16.2-.05-15.32-22.22-17.4-25.54-3.05l-8.16.08c2.22-18.74,32.28-22.81,39.53-6.17.29.67,1.69,4.79,1.69,5.05v37.06ZM695.42,203.69c-6.58,1.59-25.86,2.38-27.58,10.28-2.86,13.1,20.41,13.24,25.7.19,1.29-3.18,1.91-7.07,1.88-10.47Z"/>
      <path class="cls-3" d="M142.38,222.4v26.96h-7.49v-71.13h7.5s0,7.49,0,7.49c13.49-15.26,35.66-8.77,39.52,11.05,5.09,26.16-18.47,46.34-39.53,25.64ZM155.67,184.4c-19.4,3.3-17.35,42.1,5,39.44,20.41-2.43,18.19-43.39-5-39.44Z"/>
      <path class="cls-3" d="M761.37,158.76v71.13h-7.5s0-7.49,0-7.49c-5.93,6.02-11,9.08-19.84,8.23-26.57-2.57-26.79-49.22-1.31-52.96,9.31-1.36,14.91,1.61,21.16,8.04v-26.96h7.49ZM734.94,184.4c-19.5,3.27-17.36,42.28,5,39.43,20.55-2.61,17.98-43.29-5-39.43Z"/>
      <path class="cls-13" d="M525.31,158.76v26.21c15.62-15.83,37.5-5.87,39.62,15.44,2.44,24.45-20.34,41.1-39.62,22.75v6.74s-8.25,0-8.25,0v-71.13h8.24ZM538.6,184.4c-17.72,2.9-18.86,33.94-1.72,38.79,25.67,7.26,26.97-42.92,1.72-38.79Z"/>
      <path class="cls-13" d="M793.41,177.67c39.48-5.72,40.4,56.89,1.31,52.96-28.21-2.84-28.81-48.97-1.31-52.96ZM795.64,184.4c-19.48,2.98-19.55,35.55-.59,39.16,26.42,5.02,27.4-43.26.59-39.16Z"/>
      <path class="cls-13" d="M594.06,177.66c37.07-5.79,40.22,48.41,10.12,52.79-36.79,5.35-39.39-48.21-10.12-52.79ZM596.3,184.4c-21.39,3.62-17.74,42.23,5.01,39.44,22.77-2.79,19.1-43.52-5.01-39.44Z"/>
      <path class="cls-7" d="M643.71,158.76v60.27c0,2.98,6.48,4.52,8.99,4.12v6.74c-5.15.25-12.95.48-15.57-5.04-.29-.62-1.66-5.46-1.66-5.82v-60.27h8.24Z"/>
      <path class="cls-11" d="M48.71,204.43h-25.48l13.11-36.7,12.36,36.7ZM44.21,201.44l-7.87-23.22c-2.96,7.53-6.28,15.32-7.87,23.22h15.74Z"/>
      <path class="cls-9" d="M97.24,184.42c22.76-3.08,23.82,38.06,3.53,39.51-21.87,1.57-23.98-36.74-3.53-39.51ZM96.47,188.15c-14.62,2.46-13.18,34.12,5,31.95,14.51-1.73,15.03-35.32-5-31.95Z"/>
      <path class="cls-11" d="M456.37,204.43h-25.48l13.11-36.7,12.36,36.7ZM451.87,201.44l-7.87-23.22c-2.96,7.53-6.28,15.32-7.87,23.22h15.74Z"/>
      <path class="cls-1" d="M695.42,203.69c.03,3.41-.59,7.29-1.88,10.47-5.29,13.04-28.56,12.91-25.7-.19,1.72-7.9,21-8.69,27.58-10.28ZM690.92,208.18c-4.34,1.44-23.01,1.63-19.12,9.73,3.36,6.99,21.24-1.28,19.12-9.73Z"/>
      <path class="cls-4" d="M155.67,184.4c23.19-3.95,25.41,37.01,5,39.44-22.35,2.66-24.4-36.14-5-39.44ZM155.67,188.14c-13.72,2.35-12.54,29.68.75,31.83,8.09,1.31,13.39-3.7,14.35-11.51,1.33-10.8-1.85-22.6-15.1-20.33Z"/>
      <path class="cls-11" d="M734.94,184.4c22.99-3.86,25.55,36.82,5,39.43-22.36,2.84-24.5-36.16-5-39.43ZM734.94,188.15c-13.02,2.19-12.96,29.07-.6,31.68,20.53,4.33,22.39-35.34.6-31.68Z"/>
      <path class="cls-11" d="M538.6,184.4c25.25-4.13,23.95,46.06-1.72,38.79-17.14-4.85-16.01-35.9,1.72-38.79ZM537.85,188.14c-12.97,2.38-12.99,29.44,0,31.84,8.08,1.49,14.26-2.42,15.19-10.68,1.2-10.58-1.74-23.64-15.19-21.16Z"/>
      <path class="cls-11" d="M795.64,184.4c26.81-4.1,25.83,44.18-.59,39.16-18.96-3.6-18.89-36.18.59-39.16ZM794.89,188.14c-9.57,1.63-11.31,11.99-10.1,20.21,2.28,15.49,23.14,16.2,26.59,1.51,2.85-12.16-2.14-24.16-16.5-21.72Z"/>
      <path class="cls-11" d="M596.3,184.4c24.11-4.08,27.77,36.64,5.01,39.44-22.75,2.79-26.39-35.82-5.01-39.44ZM595.56,188.14c-15.43,2.63-12.97,35.11,6.39,31.83,15.09-2.56,16.89-35.81-6.39-31.83Z"/>
    </g>
  </g>
</svg>