<?xml version="1.0" encoding="UTF-8"?>
<svg id="Capa_2" data-name="Capa 2" xmlns="http://www.w3.org/2000/svg" viewBox="0 0 217.14 142.24">
  <defs>
    <style>
      .cls-1 {
        fill: #fff;
      }

      .cls-2 {
        fill: #ccc;
      }
    </style>
  </defs>
  <g id="Capa_1-2" data-name="Capa 1">
    <g>
      <path class="cls-2" d="M216.98,104.67c-.14,5.9-3.66,10.76-6.93,13.02-1.66,1.15-3.49,1.92-5.44,2.44-2.67.71-5.38.82-8.12.55-2.12-.21-4.17-.7-6.09-1.62-5.18-2.49-8.49-6.47-9.65-12.06-.71-3.43-.65-6.88.29-10.27,1.53-5.56,5.07-9.4,10.47-11.59,1.68-.68,3.45-1.03,5.26-1.23,1.19-.13,2.39-.17,3.59-.12,3.71.14,7.12,1.16,10.1,3.41,2.17,1.64,3.73,3.74,4.85,6.18,0,.02,0,.05-.02.14-.87.45-1.84.78-2.78,1.17-.97.41-1.95.81-2.93,1.2-.95.38-1.9.76-2.83,1.14-.22-.17-.25-.4-.34-.6-.39-.85-.89-1.64-1.54-2.33-1.45-1.53-3.21-2.44-5.35-2.52-2.15-.09-4.14.39-5.83,1.8-.49.41-.93.87-1.29,1.39-3.16,4.43-3.55,10.39-.12,15.26,1.47,2.09,3.51,3.23,6.1,3.38,1.37.08,2.73,0,4.02-.51.41-.16.82-.35,1.2-.56,1.54-.87,2.45-2.2,2.84-3.88.07-.29.1-.59.14-.88-.19-.22-.42-.15-.63-.15-1.98,0-3.95,0-5.93,0-.27,0-.55-.01-.76-.02-.08-.06-.11-.07-.13-.09-.02-.02-.03-.05-.03-.08-.01-2.19-.02-4.38-.03-6.58,0-.11.03-.21.04-.33.3-.16.61-.08.91-.08,5.4,0,10.8,0,16.21,0,.31,0,.61-.01.92-.02v2.96c-.26.47-.19.98-.16,1.49Z"/>
      <path class="cls-2" d="M176.87.16c1.65.12,3.23.55,4.79,1.06.53.17,1.06.33,1.53.62.02.04.03.06.05.09.01.02.03.05.03.08,0,3.32.01,6.63.02,9.95,0,.11-.02.22-.03.32-.27.1-.34-.14-.46-.26-1.36-1.46-3.03-2.39-4.97-2.85-2.08-.49-4.15-.45-6.16.29-2.16.79-3.73,2.28-4.72,4.31-1.43,2.92-1.55,5.94-.23,8.91,1.36,3.06,3.86,4.72,7.21,5.17,1.57.21,3.11.1,4.61-.43,1.62-.57,3.09-1.38,4.28-2.63.09-.1.2-.19.3-.29.01-.01.05,0,.08,0,.03.03.09.07.09.11,0,3.45,0,6.9,0,10.31-.15.22-.35.25-.54.3-1.73.52-3.47.98-5.26,1.29-.16.03-.33.05-.5.06-3.01.21-5.96-.08-8.78-1.18-3.43-1.34-6.33-3.41-8.58-6.33-1.58-2.05-2.51-4.38-2.97-6.9-.23-1.27-.35-2.55-.34-3.84.08-8.57,5.42-14.17,11.01-16.57,1.64-.7,3.33-1.23,5.1-1.49.25-.04.5-.05.75-.08.4.04.81.06,1.18-.16h1.17c.43.23.89.19,1.35.16Z"/>
      <path class="cls-2" d="M176.87.16c-.46.03-.92.07-1.35-.16h1.34c-.03.05-.02.11,0,.16Z"/>
      <path class="cls-2" d="M174.36,0c-.37.22-.77.19-1.18.16.03-.05.04-.1,0-.16h1.17Z"/>
      <path class="cls-2" d="M41.72,21.53c3.51,4.52,6.93,8.93,10.34,13.32.22,0,.22-.12.23-.23,0-.27,0-.55,0-.82,0-10.59,0-21.17,0-31.76,0-.33,0-.65,0-.91.15-.19.3-.18.43-.18,2.76,0,5.51,0,8.27,0,.11,0,.21.02.28.03.05.05.07.07.09.09.01.02.02.05.02.08,0,11.41.01,22.82.01,34.22,0,.08-.03.16-.04.22-.03.03-.05.05-.08.07-.02.01-.05.03-.07.03-6.6,0-13.2,0-19.85,0-.99-1.43-1.91-2.93-2.87-4.4-.95-1.45-1.89-2.91-2.83-4.37-.96-1.48-1.92-2.96-2.87-4.43-.29.05-.19.26-.19.39,0,1.84,0,3.67,0,5.51,0,2.14,0,4.28,0,6.42,0,.27.05.55-.07.81-.09.03-.17.07-.24.07-2.84,0-5.68,0-8.52,0-.08,0-.15-.04-.24-.06-.02-.09-.06-.16-.06-.24,0-11.41,0-22.82.01-34.22,0-.05.04-.09.07-.15.2-.13.42-.07.64-.07,4.32,0,8.63,0,12.95,0,1.85,0,3.66.27,5.41.87,1.08.37,2.09.89,3.04,1.53,1.55,1.04,2.63,2.45,3.19,4.21.81,2.55.89,5.12.07,7.69-.33,1.03-.82,1.98-1.45,2.86-1.12,1.55-2.64,2.57-4.48,3.13-.34.1-.69.18-1.18.31ZM32.67,16.47c.14.01.27.03.4.04.14.01.28.01.42.02,1.62.16,3.15-.18,4.59-.9.82-.41,1.32-1.07,1.56-1.93.24-.86.25-1.73.08-2.6-.22-1.16-.86-1.99-1.99-2.44-.65-.26-1.3-.47-1.98-.62-.88-.18-1.77-.14-2.66-.15-.16,0-.34-.04-.5.16,0,2.69,0,5.43,0,8.16,0,.08.04.15.07.26Z"/>
      <path class="cls-2" d="M0,116.6c.29-.75,3.48-6.64,3.9-7.2.22.16.44.32.65.48.96.75,1.97,1.44,3.05,2.01,1.64.85,3.39,1.2,5.25,1.03.82-.08,1.56-.38,2.25-.82,1.34-.87,1.52-2.32,1.26-3.4-.13-.52-.44-.94-.88-1.26-.9-.66-1.88-1.16-2.97-1.46-1.58-.44-3.15-.92-4.69-1.48-1.18-.43-2.29-.99-3.37-1.63-1.32-.77-2.13-1.9-2.6-3.3-.18-.55-.32-1.11-.39-1.68-.27-2.15-.24-4.28.5-6.34,1.25-3.5,3.74-5.77,7.28-6.94,1.79-.59,3.64-.71,5.53-.56,2.54.21,4.99.8,7.37,1.7.6.22,1.16.52,1.75.77.17.07.33.22.6.17.14-.53-.02-1.11.09-1.66.13-.15.3-.12.47-.13.56,0,1.11,0,1.67,0,7.07,0,14.15,0,21.22,0,.3,0,.61-.06.89.05.11.13.1.27.11.4.07,2.18.03,6.38-.08,7.1-.81.11-1.64.03-2.47.05-.81.01-1.62,0-2.42,0h-2.44c-.22.16-.19.33-.19.49,0,.25,0,.49,0,.74,0,8.28,0,16.57,0,24.85,0,.32-.01.65-.02.92-.07.07-.09.09-.11.1-.02.01-.05.02-.08.02-2.84,0-5.68.01-8.52.02-.11,0-.22-.02-.33-.03-.02,0-.04-.04-.13-.12-.04-.56,0-1.18-.01-1.81,0-.66,0-1.32,0-1.97v-19.25c0-.66,0-1.32,0-1.97,0-.63,0-1.25,0-1.84-.24-.21-.48-.14-.69-.14-1.98,0-3.96,0-5.93,0h-.76c-.25-.2-.18-.4-.18-.58,0-1.32,0-2.63,0-3.95,0-.21.05-.43-.06-.68-.23.04-.27.26-.34.4-.95,1.8-1.89,3.6-2.84,5.41-.11.22-.24.43-.38.68-.29-.12-.49-.31-.71-.45-1.09-.73-2.27-1.27-3.56-1.57-1.16-.27-2.31-.27-3.46.1-.53.18-1.02.43-1.46.78-1.16.91-1.08,2.82,0,3.61.65.48,1.31.92,2.09,1.19.92.32,1.85.58,2.8.83,2.25.59,4.35,1.51,6.24,2.86,1.88,1.35,2.82,3.19,3.09,5.42.28,2.39-.06,4.7-.87,6.96-.66,1.85-1.9,3.26-3.46,4.43-1.36,1.01-2.9,1.6-4.53,2.03-4.13,1.07-8.17.69-12.14-.72-1.63-.58-3.16-1.36-4.6-2.31-.14-.09-.29-.16-.36-.33Z"/>
      <path class="cls-2" d="M142.11,119.57c-.02-.08-.06-.16-.06-.24,0-11.38,0-22.76,0-34.14,0-.07.04-.15.06-.22.69-.11,7.32-.15,9.09-.05,1.11,1.34,2.2,2.76,3.31,4.15,1.12,1.4,2.23,2.81,3.34,4.21,1.13,1.43,2.26,2.85,3.39,4.28,1.11,1.4,2.23,2.81,3.35,4.21,1.11,1.4,2.21,2.81,3.34,4.19.07-.05.1-.07.11-.08.02-.02.04-.04.04-.06,0-6.94,0-13.87,0-20.74.13-.16.23-.19.35-.19,2.84,0,5.68,0,8.52,0,.08,0,.16.03.23.04.16.14.12.31.13.47,0,.19,0,.38,0,.58,0,10.86,0,21.72,0,32.58,0,.32-.01.65-.02.92-.17.21-.35.17-.51.17-2.76,0-5.51,0-8.27,0-.14,0-.28-.01-.45-.02-2.8-3.54-5.6-7.09-8.4-10.64-2.78-3.52-5.55-7.04-8.32-10.55-.11.06-.13.07-.15.09-.02.02-.02.05-.03.07,0,.05,0,.11,0,.16,0,.08,0,.16,0,.25,0,6.69,0,13.38,0,20.07,0,.03,0,.05,0,.08,0,.03,0,.05,0,.08,0,.03,0,.05,0,.08,0,.03,0,.05,0,.08,0,.03,0,.06-.02.08,0,.02-.03.04-.04.06-.05.03-.09.07-.14.07-2.87,0-5.74,0-8.61,0-.08,0-.15-.04-.24-.06Z"/>
      <path class="cls-2" d="M42.79,59.19c.15.15.35.15.53.2.51.13,1.03.24,1.52.42,1.86.69,3.2,1.94,3.99,3.75.56,1.27.84,2.61.94,3.98.12,1.54.02,3.07-.39,4.56-.58,2.12-1.83,3.71-3.81,4.76-2.55,1.36-5.28,2.04-8.16,2.06-4.68.04-9.35.01-14.03.01-.11,0-.22-.02-.29-.03-.2-.14-.15-.32-.16-.47,0-.16,0-.33,0-.49,0-11.65,0-23.3,0-34.95v-.84c.17-.21.35-.17.51-.17,4.23,0,8.46-.02,12.7,0,1.76,0,3.49.29,5.14.94.62.24,1.21.55,1.78.9,1.66,1.01,2.61,2.52,3.06,4.34.51,2.08.55,4.17.09,6.27-.43,1.91-1.41,3.44-3.11,4.49-.09.06-.18.12-.27.19-.02.02-.03.05-.04.07ZM32.15,71.55c1.49.06,2.93.14,4.37-.03.83-.1,1.62-.36,2.37-.73.96-.47,1.45-1.24,1.59-2.25.09-.63.08-1.26,0-1.88-.16-1.11-.72-1.92-1.82-2.35-.94-.37-1.9-.62-2.91-.63-1.06,0-2.11,0-3.17,0-.13,0-.28-.03-.39.08-.1.61-.13,6.57-.03,7.79ZM32.17,56.47c.31.02.59.02.87.04,1.28.11,2.48-.18,3.64-.68.59-.25.98-.7,1.19-1.3.39-1.1.37-2.2-.06-3.29-.23-.59-.64-1.02-1.24-1.25-.39-.15-.78-.28-1.18-.39-1.05-.28-2.12-.3-3.19-.21-.11.68-.12,6.09-.02,7.07Z"/>
      <path class="cls-2" d="M91.63,63.94c1.17,1.65,2.39,3.28,3.58,4.92,1.22,1.67,2.44,3.34,3.66,5.01,1.2,1.64,2.4,3.29,3.58,4.91-.05.08-.06.11-.08.13-.02.02-.04.03-.07.03-3.67,0-7.35,0-11,0-.29-.16-.38-.43-.52-.66-2.01-3.29-4.01-6.58-6.02-9.87-.64-1.06-1.29-2.11-1.94-3.17-.07-.12-.15-.22-.22-.33-.24.03-.18.2-.18.32,0,1.32,0,2.63,0,3.95,0,2.96,0,5.92,0,8.89,0,.27.06.54-.06.78-.16.14-.33.1-.5.1-3.67.07-7.75.04-8.5-.07-.02-.02-.05-.03-.06-.05-.01-.02-.02-.05-.02-.08,0-12.07-.02-24.13-.02-36.2,0-.14.02-.27.03-.41,0-.02.03-.04.06-.07.17-.12.37-.08.55-.08,4.37,0,8.75-.02,13.12,0,2.31.01,4.54.45,6.62,1.48.75.37,1.45.82,2.11,1.33,1.28,1,2.2,2.26,2.72,3.77,1,2.94,1.07,5.92.14,8.89-.29.95-.74,1.83-1.29,2.67-1.2,1.85-2.9,2.99-5.04,3.54-.21.05-.45.04-.65.27ZM82.49,49.41c-.02.15-.04.23-.04.31,0,2.82,0,5.64,0,8.46,0,.14,0,.28.21.41.23,0,.53-.02.84,0,1.48.11,2.86-.25,4.21-.82.93-.4,1.51-1.11,1.76-2.06.31-1.16.3-2.33-.02-3.49-.24-.88-.79-1.56-1.64-1.97-1.67-.8-3.43-1.04-5.31-.85Z"/>
      <path class="cls-2" d="M84.49,35.71c-.08-.74-.1-33.71-.03-34.63.12-.17.3-.13.46-.13,4.29,0,8.58-.05,12.86.02,6.82.11,12.85,3.9,15.83,9.85.92,1.84,1.42,3.79,1.62,5.83.19,2.04.06,4.06-.43,6.04-.6,2.44-1.73,4.62-3.38,6.53-2.07,2.4-4.54,4.27-7.56,5.39-1.92.71-3.91,1.08-5.96,1.09-4.29.02-8.58,0-12.86,0-.16,0-.33,0-.54,0ZM93.62,28.04c.15.02.26.04.37.04,1.03,0,2.06.02,3.09-.08,1.49-.15,2.89-.56,4.19-1.27,2.16-1.17,3.61-2.88,4.14-5.29.44-1.98.47-3.97.03-5.95-.33-1.53-1.02-2.9-2.13-4.03-1.53-1.55-3.42-2.41-5.57-2.75-1.22-.19-2.44-.14-3.67-.15-.16,0-.33-.04-.46.1-.1.7-.1,18.59,0,19.37Z"/>
      <path class="cls-2" d="M216.97.99c0,11.32,0,22.65,0,33.97,0,.25-.01.49-.02.74-2.9,0-5.79,0-8.69.01-.08,0-.16-.02-.27-.04-.18-.24-.1-.52-.1-.78,0-2.69,0-5.38,0-8.06,0-1.48,0-2.96,0-4.44,0-.27.05-.55-.05-.79-.1-.15-.25-.15-.38-.15-4.09,0-8.19,0-12.28,0-.14,0-.28,0-.42.1-.15.26-.08.57-.08.86,0,4.11,0,8.23,0,12.34,0,.3.05.6-.07.88-.64.1-7.69.13-8.94.04-.17-.11-.12-.29-.13-.45,0-.19,0-.38,0-.58,0-10.89,0-21.78,0-32.66,0-.32-.04-.65.04-.95.7-.1,8.02-.12,8.98-.03.19.23.11.51.11.77,0,2.85,0,5.7,0,8.56,0,1.07,0,2.14,0,3.21,0,.24.02.48.03.71.65.11,11.97.14,13.07.04.2-.26.1-.57.1-.86,0-3.84,0-7.68,0-11.52,0-.29.02-.59.03-.83.17-.16.32-.13.45-.13,2.76,0,5.51,0,8.27,0,.11,0,.22.02.33.04Z"/>
      <path class="cls-2" d="M116.7,35.69c-.11-.72-.12-33.73-.03-34.61.12-.17.29-.12.45-.12,4.46,0,8.91-.01,13.37,0,2.22,0,4.37.41,6.4,1.34.4.19.79.4,1.18.62,2.13,1.22,3.5,3.01,4.08,5.37.59,2.4.6,4.78-.22,7.13-.31.89-.73,1.72-1.26,2.49-1.14,1.65-2.7,2.74-4.64,3.31-.32.09-.64.18-.96.27-.02,0-.03.04-.08.11.53.8,1.17,1.55,1.77,2.33.59.77,1.18,1.52,1.78,2.29.61.78,1.22,1.57,1.83,2.35.61.78,1.22,1.57,1.82,2.35.59.76,1.19,1.52,1.78,2.29.6.78,1.21,1.56,1.79,2.32-.03.09-.04.12-.06.14-.02.02-.04.03-.07.03-3.7,0-7.4,0-11.12,0-2.87-4.42-5.72-8.83-8.58-13.24-.3.15-.18.36-.18.53,0,3.81,0,7.62,0,11.44v1.12c-.07.07-.11.14-.15.14-2.95,0-5.9,0-8.89,0ZM125.81,16.43c.13.09.27.07.41.08.14,0,.28,0,.42.02,1.6.17,3.09-.17,4.53-.85.98-.47,1.52-1.26,1.72-2.29.16-.79.16-1.59,0-2.37-.21-1.02-.76-1.82-1.75-2.26-.71-.32-1.44-.57-2.21-.72-.88-.18-1.77-.14-2.66-.15-.16,0-.34-.04-.46.1-.1.89-.08,7.85.02,8.43Z"/>
      <path class="cls-2" d="M131.06,84.97c.75-.1,8.25-.11,9.1-.03.18.24.1.52.1.79,0,3.18,0,6.36,0,9.54,0,3.24,0,6.47,0,9.71,0,2.03-.22,4.05-.54,6.06-.26,1.65-1,3.13-2.04,4.45-1.59,2.01-3.6,3.39-6.09,4.11-2.62.76-5.28,1.1-8,.96-2.18-.11-4.32-.48-6.36-1.25-3.17-1.19-5.45-3.33-6.76-6.44-.31-.74-.49-1.52-.6-2.3-.32-2.26-.48-4.52-.48-6.8,0-5.95,0-11.9,0-17.85,0-.3,0-.6,0-.81.17-.25.35-.21.51-.21,2.73,0,5.46,0,8.19,0,.13,0,.27.01.41.02.16.25.11.5.11.74,0,1.89,0,3.78,0,5.68,0,4.22,0,8.45,0,12.67,0,1.57.14,3.12.6,4.63.13.45.29.89.45,1.32.43,1.16,1.26,1.91,2.42,2.33,1.26.45,2.56.51,3.87.37.58-.06,1.15-.19,1.7-.39,1.1-.41,1.89-1.13,2.33-2.21.46-1.15.77-2.34.93-3.57.13-.95.15-1.91.15-2.87,0-5.9,0-11.79,0-17.69v-.94Z"/>
      <path class="cls-2" d="M60.27,50.2c-.1,1.4-.07,5.38.05,6.07.65.06,1.31.02,1.97.03.7,0,1.39,0,2.09,0h2.01c.7,0,1.39,0,2.09,0,.66,0,1.33,0,1.93.01.08.07.1.09.12.11.01.02.03.05.03.08,0,2.52.01,5.04.02,7.57,0,.08-.03.16-.05.27-.29.11-.6.07-.89.07-2.78,0-5.57,0-8.35,0-.3,0-.61-.05-.86.04-.16.09-.17.2-.17.31,0,1.89,0,3.78,0,5.68,0,.1.03.21.06.34.91.1,1.79.03,2.68.04.92.01,1.84,0,2.76,0s1.78,0,2.67,0c.89.01,1.77-.05,2.61.03.16.14.16.28.16.41,0,2.41,0,4.83,0,7.24,0,.11-.03.21-.04.29-.17.21-.38.16-.57.16-1.64,0-3.29,0-4.93,0-4.51,0-9.02,0-13.53,0-.3,0-.61,0-.84,0-.23-.17-.2-.34-.21-.5,0-.16,0-.33,0-.49,0-11.65,0-23.31,0-34.96,0-.3-.05-.6.06-.93.27-.13.58-.07.88-.07,3.51,0,7.02,0,10.53,0,2.56,0,5.12,0,7.69,0,.28,0,.55,0,.78,0,.18.17.17.34.17.51,0,2.36,0,4.72,0,7.07,0,.19.03.39-.17.61-.83,0-1.72,0-2.6,0s-1.84,0-2.76,0c-.89,0-1.78,0-2.67,0-.88,0-1.77-.03-2.7.03Z"/>
      <path class="cls-2" d="M1.77,42.03c1.17-.09,19.25-.07,19.89.03.02.02.05.03.06.06.01.02.02.05.02.08,0,2.36.01,4.71.02,7.07,0,.22,0,.44-.01.66,0,.05-.04.1-.07.18-.24.14-.52.07-.79.07-3.03,0-6.07,0-9.1,0-.28,0-.55,0-.76,0-.18.11-.2.22-.2.33,0,1.81,0,3.62,0,5.43,0,.1.04.21.08.37,1.12,0,2.23,0,3.34,0,1.14,0,2.28,0,3.42,0s2.22,0,3.26,0c.21.12.21.26.21.4,0,2.44,0,4.88,0,7.32,0,.11.01.22-.15.37-.48.04-1.03.01-1.58.02-.58,0-1.17,0-1.75,0h-3.34c-.58,0-1.17,0-1.75,0-.55,0-1.1-.03-1.58.02-.18.18-.16.32-.16.45-.06,1.78-.02,5.18.07,5.84.24.18.53.1.79.1,3.03,0,6.07,0,9.1,0,.3,0,.61-.04.88.05.04.09.09.13.09.18,0,2.49.01,4.99.02,7.48,0,.11-.03.21-.04.33-.3.16-.61.09-.91.09-3.81,0-7.63,0-11.44,0-2.26,0-4.51,0-6.77,0-.27,0-.55.04-.78-.04-.05-.05-.07-.07-.09-.09-.01-.02-.02-.05-.03-.08,0-.22-.02-.44-.02-.66,0-11.95,0-23.9.01-35.86,0-.05.04-.1.07-.2Z"/>
      <path class="cls-2" d="M148.34,83c-6.68-.11-12.44-2.38-17.11-7.14-3.18-3.25-5.16-7.13-5.79-11.61-.89-6.39.85-12.07,5.14-16.93,3.63-4.13,8.26-6.61,13.73-7.51,5.98-.98,11.59.05,16.73,3.22,4.97,3.07,8.35,7.39,9.79,13.02,1.68,6.58.36,12.63-3.79,18.02-3.54,4.6-8.32,7.35-14.04,8.51-1.53.31-3.08.46-4.65.43ZM148.82,66.52c.23.16.4.12.56.12,6.51,0,13.02.01,19.54.01.19,0,.39.05.55-.11.56-1.77.86-4.08.66-5.28-.28-.09-.59-.04-.89-.04-5.96,0-11.91,0-17.87,0-.7,0-1.39,0-2.09,0-.16,0-.34-.03-.47.15v5.15ZM127.26,66.62c.38,0,.68,0,.98,0,3.64,0,7.29,0,10.93,0,2.53,0,5.06,0,7.6,0,.24,0,.5.09.72-.14,0-.12.03-.26.03-.39,0-1.56-.02-3.12-.03-4.68,0-.03,0-.06-.02-.08-.01-.02-.04-.04-.06-.05-.81-.11-13-.15-20.26-.07-.19,0-.39-.05-.62.12-.07,1.75.22,3.48.74,5.28ZM168.96,67.98c-.62-.06-18.61-.13-19.75-.08-.11,0-.21.04-.31.05-.13.68-.13,4.66.02,5.4,1.11.01,2.25,0,3.38,0,1.14,0,2.28,0,3.42,0h6.85c1.14,0,2.27,0,3.36,0,1.15-1.24,2.61-3.83,3.03-5.39ZM130.78,73.34c5.55,0,11.06,0,16.56,0,.03,0,.06,0,.08-.02.02-.01.04-.04.11-.12.06-.37.02-.8.02-1.23,0-.44,0-.88,0-1.31,0-.47,0-.93,0-1.4-.01-.43.05-.86-.06-1.27-.68-.1-17.64-.19-19.4-.11-.11,0-.22.02-.3.1.26,1.3,1.87,4.18,3,5.37ZM169.55,56.19c-.33-.11-.61-.07-.88-.07-2.98,0-5.95,0-8.93,0-3.34,0-6.68,0-10.02,0-.29,0-.61-.08-.88.08-.11,1.03-.08,3.13.05,3.7.29.12.6.06.9.06,4.17,0,8.35,0,12.52,0,2.36,0,4.73,0,7.09,0,.24,0,.5.07.77-.14-.09-1.22-.24-2.46-.63-3.63ZM148.88,74.7c-.09.69-.12,4.5-.06,6.57,0,.14-.01.28.09.38.12.1.26.07.4.07,3.35-.15,6.53-.95,9.52-2.48,2.12-1.08,4-2.47,5.66-4.16.12-.12.35-.22.21-.48-5.2,0-10.4,0-15.6,0-.08,0-.15.06-.22.08ZM127.21,56.17c-.46,1.41-.7,3.02-.55,3.77.29,0,.59.02.89.02,4.81,0,9.62,0,14.44,0,1.61,0,3.23,0,4.84,0,.21,0,.45.07.63-.11.11-.94.08-3.08-.05-3.66-.64-.09-19.26-.11-20.21-.02ZM147.48,74.6c-5.16,0-10.27,0-15.38.01-.04,0-.08.06-.12.09,1.01,1.47,4.13,3.76,6.9,5.01,2.73,1.23,5.59,1.91,8.55,1.99.17-.16.15-.3.16-.44.06-2.34.01-5.88-.11-6.67ZM148.8,54.86h1.01c4.76,0,9.51,0,14.27,0,1.47,0,2.95,0,4.42,0,.18,0,.39.06.57-.17-.3-.99-.75-1.94-1.31-2.89h-8.03c-3.34,0-6.68,0-10.01,0-.3,0-.6-.05-.93.08-.02.97-.02,1.92,0,2.98ZM147.48,51.79c-.42,0-.73,0-1.03,0-5.79,0-11.58.01-17.37.02-.03,0-.05.02-.08.03-.02.01-.05.03-.14.08-.2.41-.44.87-.64,1.35-.21.49-.54.95-.51,1.58.33,0,.63.01.94.01,5.51,0,11.02,0,16.54,0,.61,0,1.22,0,1.84,0,.16,0,.34.03.5-.18,0-.9.02-1.84-.03-2.88ZM138.43,43.08c2.64,0,5.12,0,7.59,0,.3,0,.54-.06.74-.29.18-.21.38-.4.58-.59.25-.24.47-.53.76-.72.77.44,1.26,1.13,1.92,1.59,3.48.1,7.48.06,8.15-.08-1.63-1.22-6.73-2.36-10.18-2.28-3.72.08-7.73,1.16-9.55,2.38ZM142.02,47.64c-.25-.19-.42-.15-.59-.15-.92,0-1.84,0-2.76,0-1.98,0-3.96.01-5.93,0-.46,0-.78.14-1.07.49-.59.69-1.17,1.39-1.69,2.14-.07.11-.18.21-.1.39h9.35c.92-.92,1.85-1.85,2.78-2.86ZM154.83,47.56c.05.11.06.16.09.2.88.84,1.76,1.67,2.63,2.52.22.22.47.25.76.25,2.73,0,5.45,0,8.18,0,.13,0,.28.04.35-.13,0-.05,0-.11-.03-.15-.58-.9-1.27-1.73-2-2.52-.14-.15-.3-.23-.51-.23-.17,0-.33,0-.5,0-2.73,0-5.45,0-8.18,0-.25,0-.5-.04-.79.07ZM163.04,46.23c0-.23-.09-.29-.17-.36-.57-.43-1.15-.86-1.72-1.29-.28-.21-.58-.28-.93-.28-2.8.01-5.61,0-8.41,0-.1,0-.23-.05-.31.12-.02.13.11.21.2.3.38.36.79.7,1.14,1.08.31.34.66.43,1.1.43,2.89-.02,5.77,0,8.66,0,.14,0,.27,0,.44,0ZM145.05,44.38s-.09-.07-.14-.07c-2.84,0-5.68,0-8.52-.01-.3,0-.54.08-.77.25-.6.45-1.19.9-1.79,1.35-.08.06-.19.12-.14.26.68.09,8.85.1,9.78.01.5-.52,1.04-1.08,1.57-1.64.03-.03,0-.1,0-.15ZM148.79,50.51c2.35,0,4.6,0,6.85,0,.07,0,.1-.02.11-.05.03-.16-.07-.23-.14-.3-.84-.8-1.68-1.59-2.51-2.4-.22-.21-.46-.28-.75-.28-1.06,0-2.11,0-3.17,0-.1,0-.21.03-.35.06-.07.97-.03,1.92-.03,2.96ZM147.46,47.48c-1.06,0-2.03.01-3,0-.37,0-.63.11-.87.38-.7.74-1.42,1.47-2.13,2.2-.11.11-.27.19-.25.39.73.11,5.53.11,6.25-.01.07-.94.04-1.88,0-2.95ZM148.8,46.12c.11.05.16.09.21.09.69,0,1.38,0,2.07,0,.04,0,.09-.04.12-.06.07-.1,0-.16-.05-.22-.49-.48-.99-.95-1.49-1.42-.24-.23-.52-.28-.86-.13-.04.58-.04,1.17,0,1.73ZM147.42,44.37c-.29-.12-.45.02-.61.18-.46.47-.91.94-1.37,1.42-.05.06-.09.13,0,.25.65,0,1.33.08,2.04-.07,0-.52,0-1.01,0-1.49,0-.1-.04-.2-.06-.29Z"/>
      <path class="cls-2" d="M83.08,1.03v7.44c-.27.17-.56.1-.83.1-3.04,0-6.07,0-9.11,0-.27,0-.55,0-.87,0-.14,1-.05,1.95-.06,2.89-.02.95,0,1.91,0,2.88.74.13,1.4.06,2.07.07.67.01,1.34,0,2,0h6.02c.2.13.2.27.2.41,0,2.28,0,4.55,0,6.83,0,.1-.03.21-.06.35-.87.11-1.73.04-2.58.05-.84.01-1.67,0-2.51,0s-1.73,0-2.59,0c-.83,0-1.66-.01-2.5.01-.03.18-.05.28-.05.38,0,1.81,0,3.62.02,5.43,0,.05.05.09.11.2.57.04,1.18.01,1.78.02.58,0,1.17,0,1.75,0h3.59c.61,0,1.23,0,1.84,0,.58,0,1.16-.04,1.72.03.12.75.12,6.79.01,7.51-.02.02-.04.04-.06.05-.02.01-.05.02-.08.02-6.46,0-12.92.01-19.38.02-.11,0-.22-.02-.3-.03-.18-.14-.14-.31-.14-.47,0-.16,0-.33,0-.49,0-10.91,0-21.82,0-32.74v-.83c.16-.23.34-.19.5-.2.19,0,.39,0,.58,0,5.99,0,11.97,0,17.96,0,.3,0,.61-.05.97.08Z"/>
      <path class="cls-2" d="M81.96,92.5h-10.86c-.2.11-.22.22-.22.33,0,1.73,0,3.46,0,5.18,0,.08.03.16.06.27.66.13,1.32.05,1.98.06.67.01,1.34,0,2.01,0h1.92c.67,0,1.34,0,2.01,0,.66,0,1.33,0,2.02.01.12.87.05,1.68.06,2.5.01.85,0,1.7,0,2.55s0,1.64,0,2.42c-.27.22-.53.14-.77.14-2.79,0-5.57,0-8.36,0h-.84c-.16.33-.1.63-.1.92,0,3.92,0,7.84,0,11.76,0,.3-.02.59-.02.82-.13.16-.25.15-.36.15-1.34.05-8.07.01-8.68-.06-.15-.13-.1-.3-.1-.46,0-.16,0-.33,0-.49,0-10.91,0-21.83,0-32.74,0-.3,0-.59,0-.9.34-.16.65-.09.94-.09,3.48,0,6.96,0,10.44,0h8.8c.13.87.05,1.68.06,2.49.01.85,0,1.7,0,2.55v2.56Z"/>
      <path class="cls-2" d="M2.01,1.03c.98-.13,14.56-.18,19.63-.08.16,0,.33-.03.48.08.03.05.07.1.07.14,0,2.36.01,4.72.01,7.08,0,.08-.04.15-.07.27-.91.1-1.82.03-2.73.04-.92.01-1.84,0-2.76,0h-5.44c-.16.67-.06,1.3-.08,1.92-.02.63,0,1.26,0,1.89v1.86c.31.25.63.16.92.16,2.7,0,5.4,0,8.11,0,.3,0,.6.01.85.02.2.17.17.34.17.5,0,2.19,0,4.39,0,6.58,0,.14-.02.27-.03.39-.23.21-.49.13-.73.13-2.79,0-5.57,0-8.36,0-.28,0-.56-.04-.84.05-.18.27-.09.58-.09.88,0,3.92,0,7.84,0,11.77,0,.3-.02.59-.02.88-.13.04-.2.08-.28.08-2.89,0-5.79,0-8.62,0-.22-.16-.17-.33-.18-.49,0-.16,0-.33,0-.49,0-10.92,0-21.83,0-32.75,0-.3,0-.6,0-.94Z"/>
      <path class="cls-2" d="M124,50.14c-.48.06-.98.02-1.48.03-.5,0-1,0-1.5,0h-1.42c-.5,0-1,0-1.5,0-.5,0-.99-.03-1.51.03-.11.32-.06.62-.06.92,0,3.67,0,7.35,0,11.02,0,5.27,0,10.53,0,15.8,0,.3.05.6-.04.88-.09.1-.2.13-.31.13-2.81,0-5.63,0-8.44,0-.08,0-.16-.03-.22-.04-.18-.13-.14-.3-.14-.46,0-.22,0-.44,0-.66,0-8.86,0-17.72,0-26.57,0-.32-.02-.64-.03-1.02-.66-.05-1.27-.02-1.87-.03-.61,0-1.23,0-1.84,0h-1.84c-.61,0-1.22,0-1.76,0-.21-.14-.2-.28-.2-.41,0-2.5,0-4.99,0-7.49,0-.05.02-.11.03-.16.12-.15.3-.12.46-.13.17,0,.33,0,.5,0,7.44,0,14.87,0,22.31,0,.3,0,.61-.05.9.06.03.1.07.18.07.25,0,2.52,0,5.05,0,7.57,0,.08-.04.15-.08.28Z"/>
      <path class="cls-2" d="M90.78,119.56c-.08-.3-.05-.63-.05-.95,0-7.78,0-15.57,0-23.35,0-.71,0-1.43,0-2.14,0-.19.03-.39-.16-.61-.78,0-1.61,0-2.44,0-.81,0-1.61,0-2.42,0-.83,0-1.66.01-2.44-.01-.07-.08-.09-.1-.11-.12-.01-.02-.03-.05-.03-.07,0-2.36-.01-4.71-.01-7.07,0-.08.03-.15.04-.2.04-.05.05-.07.08-.09.02-.01.05-.02.08-.02.19,0,.39-.02.58-.02,7.79,0,15.59,0,23.38.02.05,0,.1.04.15.06.11.61.14,6.54.02,7.5-.48.09-.97.03-1.46.04-.5,0-1,0-1.5,0h-4.34c-.23.17-.19.35-.19.51,0,.22,0,.44,0,.66,0,8.3,0,16.61,0,24.91,0,.32-.02.65-.02.92-.19.18-.37.14-.53.14-3.76.08-7.85.04-8.62-.08Z"/>
      <path class="cls-2" d="M50.09,84.92h9.01c.18.12.14.3.14.46,0,.19,0,.38,0,.58,0,10.88,0,21.76,0,32.64,0,.32-.01.65-.02.9-.14.16-.25.15-.36.15-2.89,0-5.78,0-8.69,0-.04-.15-.08-.26-.08-.36,0-11.42,0-22.85,0-34.36Z"/>
      <path class="cls-2" d="M155.46,35.65c-.96.1-8.32.08-8.97,0-.03-.02-.05-.04-.06-.06-.01-.02-.02-.05-.02-.08,0-11.37-.01-22.75-.02-34.12,0-.11.02-.21.03-.28.1-.13.21-.14.32-.14,2.78,0,5.57,0,8.35,0,.11,0,.21.02.26.03.07.06.1.08.11.1.01.02.02.05.02.08,0,11.37.01,22.75.01,34.12,0,.11-.02.21-.04.36Z"/>
      <path class="cls-1" d="M182.52,138.88c.13-.38.08-.68.08-.98,0-3.13,0-6.25,0-9.38,0-.29-.08-.61.14-.9.5-.09,1.02-.06,1.51-.02.25.24.17.5.17.74,0,1.92,0,3.84,0,5.76,0,2.33,0,4.66,0,6.99,0,.27.07.55-.11.84-.72.11-1.46.05-2.25.03-1.16-2.06-2.25-4.15-3.37-6.23-1.12-2.08-2.24-4.15-3.36-6.23-.23.07-.14.24-.16.35-.02.11,0,.22,0,.33,0,3.59,0,7.19,0,10.78,0,.3.05.6-.08.93-.52.21-1.07.06-1.56.09-.26-.25-.18-.51-.18-.75,0-2.14,0-4.28,0-6.42,0-2.11,0-4.22,0-6.34,0-.27-.04-.54.08-.84.46-.13.93-.05,1.4-.06.47-.01.95,0,1.36,0,.31.15.38.4.49.61,1.79,3.32,3.57,6.64,5.35,9.96.13.23.21.5.5.74Z"/>
      <path class="cls-1" d="M104.52,127.66c.3-.13.55-.08.8-.09.69,0,1.39,0,2.11,0,2.05,3.81,4.08,7.58,6.11,11.34.22-.01.17-.15.18-.24.01-.11,0-.22,0-.33,0-3.26,0-6.53,0-9.79,0-.29-.05-.6.08-.94.55-.07,1.09-.06,1.57-.02.18.16.17.3.17.43,0,4.5,0,8.99,0,13.49,0,.11-.02.22-.03.32-.51.18-1.29.21-2.37.07-.15-.27-.33-.57-.5-.88-1.84-3.42-3.67-6.83-5.51-10.25-.18-.34-.37-.68-.56-1.01-.05-.09-.09-.2-.29-.19-.12.38-.04.79-.05,1.18-.01.41,0,.82,0,1.23v7.4c0,.41,0,.82,0,1.23,0,.41.05.82-.06,1.26-.54.17-1.07.11-1.57.04-.14-.16-.13-.3-.14-.43-.08-2.17-.03-13.16.07-13.84Z"/>
      <path class="cls-1" d="M66.25,140.91c-1.21.54-2.41.97-3.68,1.17-1.64.26-3.27.2-4.86-.34-2-.69-3.36-2.03-3.98-4.02-.6-1.9-.63-3.84-.01-5.75.72-2.23,2.27-3.66,4.56-4.29,1.96-.54,3.91-.43,5.84.12.51.14,1,.34,1.49.53.2.08.39.19.62.3.06.72.03,1.42.02,2.09-.18.13-.3.07-.42-.01-.16-.11-.33-.21-.49-.32-1.67-1.15-3.55-1.56-5.55-1.36-2.09.21-3.61,1.49-4.2,3.58-.41,1.48-.39,2.98.07,4.46.66,2.1,2.4,3.35,4.58,3.47,1.35.08,2.76-.06,4-.61.16-.54.18-2.52.04-3.46-1.22-.13-2.47.01-3.74-.08-.21-.51-.1-1.01-.09-1.45.11-.18.22-.19.33-.19,1.73,0,3.45,0,5.18,0,.05,0,.11.02.18.04.03.06.1.13.1.2,0,1.94,0,3.89,0,5.92Z"/>
      <path class="cls-1" d="M35.78,135.71c.95,1.09,1.84,2.1,2.72,3.13.86,1,1.76,1.96,2.56,2.97-.04.08-.05.11-.07.13-.02.02-.05.03-.07.03-.72,0-1.45,0-2.22,0-1.62-1.89-3.25-3.79-4.88-5.69-.9-.04-1.75-.04-2.56,0-.2.25-.14.48-.14.69,0,1.37,0,2.74,0,4.11,0,.27.06.55-.07.8-.64.14-1.09.15-1.8.02-.09-.08-.1-.19-.1-.3,0-4.63,0-9.26,0-13.83.18-.21.35-.19.52-.19,1.34,0,2.67-.02,4.01.02.78.02,1.56.07,2.31.31.9.29,1.66.76,2.19,1.55.24.35.39.73.47,1.14.41,2.12-.44,3.84-2.39,4.88-.12.06-.24.13-.46.25ZM31.14,134.61c1.1.02,2.12.06,3.14-.04.19-.02.38-.08.57-.14.92-.3,1.51-.9,1.74-1.82.13-.51.13-1.04.04-1.55-.09-.53-.37-.96-.84-1.27-.4-.26-.84-.4-1.32-.46-.94-.12-1.88-.1-2.83-.1-.16,0-.34-.02-.49.16v5.22Z"/>
      <path class="cls-1" d="M80.77,127.65c.1-.03.18-.07.26-.07,2.98,0,5.95,0,8.93,0,.08,0,.16.04.23.05.16.61.16.94,0,1.65-.62.07-1.25.02-1.88.03-.61,0-1.22,0-1.84,0s-1.28,0-1.92,0c-.61,0-1.21-.04-1.8.03-.14.63-.16,2.67-.06,3.73.21.24.51.16.77.16,1.98,0,3.95,0,5.93,0,.27,0,.55-.06.86.1.09.49.07.99.01,1.48-.27.17-.53.11-.77.11-1.98,0-3.95,0-5.93,0-.27,0-.55-.06-.87.1-.11.84-.05,1.71-.04,2.58,0,.84-.07,1.69.05,2.56.86.12,1.69.04,2.52.06.83.01,1.67,0,2.5,0,.83,0,1.66-.03,2.53.03.08.56.07,1.07.02,1.55-.14.19-.32.16-.48.16-2.87,0-5.73,0-8.6,0-.14,0-.28,0-.42-.1-.02-.05-.08-.13-.08-.2,0-4.58-.01-9.15,0-13.73,0-.1.05-.21.08-.31Z"/>
      <path class="cls-1" d="M8.02,127.61c.87-.07,1.68-.03,2.42-.03.25.14.28.33.35.51,1.09,2.93,2.18,5.86,3.26,8.79.53,1.44,1.06,2.88,1.6,4.32.08.23.22.44.16.74-.63.07-1.26.06-1.93,0-.57-1.29-.92-2.64-1.49-3.96-1.04-.08-2.07-.03-3.09-.04-1.03,0-2.05,0-3.08,0-.41.65-.56,1.35-.81,2.01-.24.64-.47,1.29-.7,1.94-.63.15-1.23.04-1.82.07-.16-.3.02-.52.1-.73.78-2.14,1.57-4.27,2.36-6.41.79-2.13,1.58-4.27,2.38-6.4.09-.26.19-.51.32-.83ZM9.2,129.44c-.85,2.34-1.67,4.54-2.47,6.82.88.06,1.68.04,2.48.03.82,0,1.64.07,2.47-.06-.16-.75-2.07-6-2.48-6.79Z"/>
      <path class="cls-1" d="M199.61,141.95c-.67.02-1.24.08-1.79-.03-.03-.07-.06-.09-.06-.12,0-.08,0-.17.02-.24,1.68-4.56,3.37-9.11,5.06-13.67.04-.1.11-.19.18-.32.82-.02,1.65-.03,2.45,0,.35.67,5.11,13.58,5.27,14.25-.07.16-.22.14-.35.14-.5,0-1,0-1.46,0-.31-.23-.35-.55-.45-.82-.28-.75-.53-1.5-.8-2.25-.1-.28-.21-.56-.3-.79-.15-.15-.29-.17-.43-.17-1.87,0-3.73,0-5.6,0-.08,0-.16.03-.28.06-.34.61-.5,1.31-.75,1.97-.25.64-.47,1.28-.72,1.97ZM201.78,136.29c.88,0,1.68.01,2.49,0,.79-.02,1.58.08,2.44-.08-.8-2.2-1.57-4.34-2.35-6.48-.03-.07-.11-.12-.16-.18-.4.74-2.32,6.05-2.41,6.74Z"/>
      <path class="cls-1" d="M140.84,129.27c-.59.08-1.14.03-1.69.04-.56,0-1.11,0-1.67,0-.55,0-1.11,0-1.6.01-.25.19-.2.39-.2.58,0,.79,0,1.59,0,2.38,0,2.9,0,5.81,0,8.71,0,.29.07.6-.12.92-.56.11-1.13.05-1.72.03-.18-.3-.11-.61-.11-.9,0-3.43,0-6.85,0-10.28,0-.33,0-.66,0-.99,0-.13.01-.28-.14-.43-.78-.11-1.61-.03-2.44-.05-.83-.01-1.67,0-2.52,0-.22-.59-.19-1.14-.04-1.68.77-.1,11.54-.09,12.25,0,.13.52.09,1.05.02,1.63Z"/>
      <path class="cls-1" d="M158.95,140.58c.05.47.08.89-.02,1.29-.09.04-.14.09-.19.09-1.7,0-3.39.02-5.09.02-.11,0-.21-.03-.34-.05-.18-.46-.14-.91-.03-1.37.58-.16,1.18.04,1.69-.12.17-.15.16-.29.16-.42,0-3.48,0-6.96,0-10.44,0-.13-.03-.27-.05-.42-.57-.25-1.17,0-1.78-.17-.19-.43-.11-.87-.04-1.37.96-.13,1.9-.04,2.84-.06.91-.01,1.83,0,2.77,0,.2.49.1.93.08,1.41-.6.17-1.19-.02-1.77.13-.03.12-.07.23-.07.33,0,3.64,0,7.28,0,10.92.6.27,1.2.01,1.84.21Z"/>
    </g>
  </g>
</svg>