<?xml version="1.0" standalone="no"?>
<!DOCTYPE svg PUBLIC "-//W3C//DTD SVG 1.1//EN" "http://www.w3.org/Graphics/SVG/1.1/DTD/svg11.dtd">
<svg xmlns="http://www.w3.org/2000/svg" width="24" height="25" viewBox="0 0 24 25" fill="none">
<path d="M12 16.3916C14.0711 16.3916 15.75 14.7127 15.75 12.6416C15.75 10.5705 14.0711 8.8916 12 8.8916C9.92893 8.8916 8.25 10.5705 8.25 12.6416C8.25 14.7127 9.92893 16.3916 12 16.3916Z" stroke="white" stroke-width="1.5" stroke-miterlimit="10"/>
<path d="M16.5 3.6416H7.5C5.01472 3.6416 3 5.65632 3 8.1416V17.1416C3 19.6269 5.01472 21.6416 7.5 21.6416H16.5C18.9853 21.6416 21 19.6269 21 17.1416V8.1416C21 5.65632 18.9853 3.6416 16.5 3.6416Z" stroke="white" stroke-width="1.5" stroke-linecap="round" stroke-linejoin="round"/>
<path d="M16.875 8.8916C17.4963 8.8916 18 8.38792 18 7.7666C18 7.14528 17.4963 6.6416 16.875 6.6416C16.2537 6.6416 15.75 7.14528 15.75 7.7666C15.75 8.38792 16.2537 8.8916 16.875 8.8916Z" fill="white"/>
</svg>