<?xml version="1.0" standalone="no"?>
<!DOCTYPE svg PUBLIC "-//W3C//DTD SVG 1.1//EN" "http://www.w3.org/Graphics/SVG/1.1/DTD/svg11.dtd">
<svg xmlns="http://www.w3.org/2000/svg" width="24" height="25" viewBox="0 0 24 25" fill="none">
<path d="M20.25 3.6416H3.75C3.33579 3.6416 3 3.97739 3 4.3916V20.8916C3 21.3058 3.33579 21.6416 3.75 21.6416H20.25C20.6642 21.6416 21 21.3058 21 20.8916V4.3916C21 3.97739 20.6642 3.6416 20.25 3.6416Z" stroke="white" stroke-width="1.5" stroke-linecap="round" stroke-linejoin="round"/>
<path d="M11.25 11.1416V17.1416" stroke="white" stroke-width="1.5" stroke-linecap="round" stroke-linejoin="round"/>
<path d="M8.25 11.1416V17.1416" stroke="white" stroke-width="1.5" stroke-linecap="round" stroke-linejoin="round"/>
<path d="M11.25 13.7666C11.25 13.0704 11.5266 12.4027 12.0188 11.9104C12.5111 11.4182 13.1788 11.1416 13.875 11.1416C14.5712 11.1416 15.2389 11.4182 15.7312 11.9104C16.2234 12.4027 16.5 13.0704 16.5 13.7666V17.1416" stroke="white" stroke-width="1.5" stroke-linecap="round" stroke-linejoin="round"/>
<path d="M8.25 9.6416C8.87132 9.6416 9.375 9.13792 9.375 8.5166C9.375 7.89528 8.87132 7.3916 8.25 7.3916C7.62868 7.3916 7.125 7.89528 7.125 8.5166C7.125 9.13792 7.62868 9.6416 8.25 9.6416Z" fill="white"/>
</svg>