<?xml version="1.0" encoding="UTF-8"?>
<svg id="Capa_2" data-name="Capa 2" xmlns="http://www.w3.org/2000/svg" viewBox="0 0 552.72 147.42">
  <defs>
    <style>
      .cls-1 {
        fill: #fff;
      }

      .cls-2 {
        fill: #fdfefd;
      }

      .cls-3 {
        fill: #73ab27;
      }

      .cls-4 {
        fill: #f7b900;
      }
    </style>
  </defs>
  <g id="Capa_1-2" data-name="Capa 1">
    <g>
      <path class="cls-3" d="M147.62,73.7c.19,40.44-33.08,74.44-75.21,73.71C32.35,146.72-.26,113.97,0,73.18.25,33.45,32.22.03,73.77,0c41.94-.03,74.03,34.05,73.85,73.7ZM22.12,37.49c.18-.08.38-.13.55-.24,11.06-7.15,23.14-11.14,36.32-11.84,12.41-.67,24.31,1.37,35.41,6.98,12.39,6.25,20.45,16.2,24.14,29.61.17.61.37,1.22.55,1.83,2.52-12.94,1.21-25.42-4.12-37.43-.41-.92-1.14-1.81-1.94-2.44-9.91-7.8-21.17-12.37-33.73-13.36-18.3-1.44-34.38,4.04-48.11,16.24-3.51,3.11-6.7,6.54-9.19,10.55l-.17.25c.1-.05.19-.09.29-.14ZM66.63,136.59c.19.02.38.04.57.06,0-.04,0-.08,0-.11-.15-.03-.29-.07-.44-.1-.32-.23-.63-.48-.97-.68-7.97-4.43-14.93-10.08-20.8-17.06-8.83-10.49-14.22-22.54-16.55-36.03-2.52-14.57.79-27.55,10.23-38.95,1.36-1.65,2.94-3.12,4.61-4.87-.48.1-.68.11-.87.18-12.46,4.42-22.64,11.91-30.5,22.53-.31.43-.52.99-.62,1.51-1.14,6.05-1.31,12.16-.5,18.24,2.41,17.94,10.86,32.44,25.35,43.3,9.03,6.76,19.19,10.83,30.47,11.96ZM58.58,117.4c-.11-.03-.23-.06-.34-.09.06.08.12.17.18.25.16.19.29.41.48.57,8.79,7.94,19.02,12.96,30.63,15.33,2.74.56,5.14.23,7.68-.81,8.76-3.6,16.36-8.82,22.91-15.65,17.51-18.27,22.21-46.84,11.39-69.68-.17-.37-.42-.7-.85-1.39,0,.79-.01,1.14,0,1.49.24,5.76.07,11.51-.97,17.19-3.17,17.31-11.43,31.72-24.71,43.29-9.13,7.96-19.71,12.06-31.86,11.99-4.98-.03-9.81-1.05-14.55-2.5ZM54.6,41.72c-4.08-.13-4.5.04-5.13,3.39-.49,2.57-1.72,4.04-4.36,4.26-.3.03-.59.16-.88.24-1.98.52-2.95,1.42-2.51,3.34.85,3.63-.64,5.63-3.73,7.14-1.65.81-2.07,2.01-1.18,3.58,1.78,3.13,1.41,5.64-1.23,8.11-1.44,1.35-1.4,2.7.04,4.01,2.53,2.3,3.03,4.61,1.29,7.66-1.03,1.81-.46,2.93,1.3,4.11.34.23.69.43,1.04.64,2.66,1.56,2.92,2.11,2.45,5.21-.43,2.86.25,4.09,3.09,4.53,2.9.45,4.33,1.91,4.8,4.79.47,2.89,1.65,3.52,4.53,3.02,2.76-.48,3.71-.04,5.14,2.4,1.87,3.19,2.44,3.39,5.85,2.02.09-.04.2-.06.28-.11,1.98-1.23,3.67-.69,5.21.84.29.29.58.57.9.83,1.82,1.48,2.91,1.45,4.69-.12.57-.5,1.16-1,1.76-1.47.99-.79,2.06-1.04,3.27-.49.93.42,1.88.79,2.83,1.16,1.4.55,2.48.08,3.3-1.11.38-.54.74-1.1,1.08-1.67,1.39-2.31,2.29-2.75,4.9-2.36,3.29.49,4.35-.14,4.86-3.37.38-2.46,1.53-3.89,4.05-4.19.65-.08,1.29-.3,1.91-.51,1.13-.39,1.76-1.18,1.76-2.4,0-.66.11-1.35-.05-1.98-.64-2.61.63-4.07,2.79-5.23,2.78-1.49,3.18-2.44,1.75-5.27-1.26-2.51-.82-4.35,1.02-6.3,2.15-2.28,2.12-3.35-.12-5.56-1.89-1.87-2.1-3.72-.92-6.04,1.42-2.8,1.02-3.93-1.81-5.39-2.09-1.08-3.3-2.48-2.71-4.96.09-.39.04-.81.05-1.22.04-2.58-.39-3.41-2.98-3.73-3.03-.38-4.6-1.84-4.85-4.82-.02-.2-.08-.4-.13-.59-.51-1.92-1.15-2.43-3.13-2.4-4.97.07-4.7.8-7.33-3.72-.92-1.58-1.88-1.8-3.65-1.2-.48.16-.97.34-1.41.58-2.15,1.19-3.91.69-5.64-.98-2.38-2.3-3.54-2.4-5.84-.13-1.95,1.93-3.78,2.08-6.16.94-2.82-1.34-3.69-1.05-5.19,1.67-1.23,2.23-2.74,3.52-5.01,2.88ZM130.66,45.84s-.04-.07-.06-.1c-.03.03-.07.05-.08.08,0,.03.03.07.06.1.03-.03.06-.05.08-.08Z"/>
      <path class="cls-1" d="M202.48,86.71h-5.19c-.74-6.06-1.47-12.05-2.23-18.3-1.95,5.91-3.85,11.5-5.63,17.14-.37,1.16-1,1.27-2,1.28-1.01,0-1.63-.12-1.98-1.28-1.69-5.59-3.49-11.14-5.26-16.71-.05-.17-.16-.32-.33-.64-.76,6.31-1.49,12.39-2.22,18.53h-5.19c1.28-8.41,2.56-16.76,3.83-25.11h5.75c1.84,5.64,3.67,11.27,5.43,16.7,1.8-5.45,3.65-11.06,5.5-16.7h5.68c1.28,8.34,2.55,16.65,3.85,25.1Z"/>
      <path class="cls-1" d="M407.53,119.74c-1.77.08-3.54.16-5.51.25-.75-6.15-1.49-12.17-2.22-18.16-1.71,5.19-3.43,10.39-5.15,15.59q-.88,2.66-3.93,2.39c-1.93-5.97-3.87-12-5.87-18.18-.74,6.12-1.46,12.14-2.19,18.21h-5.11c1.25-8.2,2.48-16.32,3.74-24.57h5.72c1.77,5.45,3.57,10.99,5.31,16.31,1.66-5,3.4-10.22,5.1-15.44.24-.74.58-1.05,1.39-1.02,1.47.07,2.94.02,4.52.02.59,3.86,1.17,7.62,1.74,11.38.63,4.12,1.24,8.25,1.89,12.36.05.32.38.59.58.89,0,0-.02-.04-.02-.04Z"/>
      <path class="cls-1" d="M222.57,119.68c.21-.4.55-.77.61-1.19,1.16-7.49,2.29-14.98,3.43-22.47.04-.25.13-.49.22-.8h5.62c1.79,5.5,3.59,11.05,5.31,16.37,1.74-5.27,3.57-10.8,5.42-16.38h5.61c1.26,8.2,2.51,16.37,3.77,24.63h-5.11c-.73-5.95-1.46-11.88-2.2-17.99-2.03,6.14-3.98,12.06-5.92,17.94q-3.02.33-3.9-2.35c-1.72-5.3-3.44-10.61-5.13-15.83-.72,5.98-1.45,12.07-2.2,18.38-1.89-.1-3.71-.2-5.52-.29,0,0,0-.02,0-.02Z"/>
      <path class="cls-1" d="M251.02,79.34v-17.68h5.1v25.12c-1.62,0-3.24.05-4.86-.04-.35-.02-.76-.45-1.02-.79-3.61-4.67-7.22-9.34-10.79-14.05-.67-.88-1.14-1.9-1.81-3.02v17.79h-5.16v-25.12c1.7,0,3.41-.03,5.12.03.32.01.69.36.92.64,3.59,4.69,7.18,9.37,10.73,14.09.64.85,1.09,1.83,1.77,3.01Z"/>
      <path class="cls-1" d="M336.94,74.22c0-7.26,6.02-13.19,13.42-13.22,7.54-.03,13.54,5.83,13.54,13.22,0,7.38-5.89,13.18-13.37,13.19-7.56.01-13.58-5.83-13.58-13.19ZM358.27,74.14c-.02-4.78-3.41-8.32-7.91-8.3-4.47.02-7.76,3.62-7.75,8.46.01,4.8,3.4,8.35,7.9,8.3,4.49-.05,7.78-3.64,7.76-8.46Z"/>
      <path class="cls-1" d="M501.31,94.58c7.32.01,13.09,5.78,13.07,13.07-.01,7.23-5.86,12.93-13.23,12.92-7.38,0-13.32-5.87-13.27-13.09.06-7.3,5.9-12.92,13.42-12.9ZM501.06,115.73c4.56.02,7.8-3.35,7.81-8.13,0-4.69-3.22-8.22-7.56-8.27-4.55-.05-7.9,3.46-7.88,8.26.01,4.73,3.19,8.12,7.64,8.13Z"/>
      <path class="cls-1" d="M299.41,94.58c7.33,0,13.15,5.76,13.14,13.01,0,7.21-5.87,12.98-13.19,12.98-7.39,0-13.38-5.84-13.35-13.04.03-7.26,5.92-12.95,13.4-12.95ZM299.19,115.73c4.56.03,7.83-3.34,7.85-8.1.02-4.67-3.23-8.23-7.56-8.29-4.51-.06-7.95,3.49-7.95,8.24,0,4.69,3.22,8.12,7.66,8.16Z"/>
      <path class="cls-1" d="M215.34,53.06v-25.4c4.62.31,9.23.25,13.69,1.01,4.56.78,7.8,4.99,8.21,9.69.15,1.71.18,3.48-.12,5.16-.95,5.34-4.64,8.67-10.2,9.4-.91.12-1.83.13-2.75.14-2.9.02-5.8,0-8.83,0ZM220.87,48.44c3.54-.05,7.4.78,9.62-2.79,2.03-3.26,2.04-7.02-.03-10.29-2.24-3.54-6.08-2.72-9.59-2.86v15.93Z"/>
      <path class="cls-1" d="M205.46,61.63h5.44c0,1.89,0,3.7,0,5.52,0,3.41-.06,6.82.03,10.23.09,3.28,2,5.14,5.15,5.22,3.32.09,5.45-1.61,5.59-4.91.2-4.72.11-9.46.14-14.19,0-.6,0-1.2,0-1.87h5.43c0,.58,0,1.12,0,1.66-.02,5.09.07,10.18-.08,15.27-.14,5.02-3.12,8.16-8.1,8.66-1.86.19-3.77.19-5.63-.01-4.78-.52-7.77-3.62-7.92-8.53-.18-5.64-.04-11.28-.04-17.05Z"/>
      <path class="cls-1" d="M180.12,42.19v10.74h-5.39v-24.74c3.68,0,7.31-.28,10.88.08,3.88.39,5.79,2.66,5.98,6.34.18,3.52-1.91,6.37-5.12,7.01-.09.02-.17.1-.35.2,2.22,3.68,4.45,7.35,6.79,11.23-2.06,0-3.89.06-5.7-.05-.4-.02-.9-.55-1.14-.96-1.91-3.29-3.77-6.61-5.65-9.93-.1.02-.21.05-.31.07ZM180.15,38.73c1.39-.14,2.69-.22,3.98-.43,1.19-.19,1.88-1,2-2.19.14-1.37.08-2.85-1.42-3.37-1.43-.5-3-.57-4.56-.84v6.82Z"/>
      <path class="cls-1" d="M255.8,94.96c3.64.2,7.26.17,10.8.66,3.16.44,4.97,2.87,5.02,5.83.04,2.4-.96,3.94-3.16,4.89-.36.15-.71.31-1.29.58,2.72.72,4.72,1.91,5.24,4.68.73,3.93-1.78,7.31-6.33,7.93-3.35.45-6.78.36-10.28.52v-25.09ZM261.18,115.74c2.1-.13,4.26.43,5.56-1.66.69-1.11.72-2.39-.05-3.47-1.41-1.96-3.51-1.34-5.5-1.36v6.49ZM261.2,104.95c1.84,0,3.84.43,4.95-1.3.49-.76.48-2.34,0-3.1-1.11-1.73-3.11-1.22-4.94-1.34v5.74Z"/>
      <path class="cls-1" d="M222.57,119.68s0,.02,0,.02c-1.82.07-3.63.15-5.45.18-.2,0-.44-.22-.58-.4-.15-.19-.2-.46-.3-.7-.53-1.31-.71-3.16-1.68-3.79-1.05-.69-2.84-.26-4.31-.28-1.68-.02-3.36,0-5.08,0-.49,1.47-.88,2.89-1.45,4.25-.17.42-.79.87-1.24.91-1.52.11-3.05.04-4.81.04,1.18-3.11,2.32-6.08,3.45-9.05,1.84-4.84,3.71-9.67,5.5-14.53.33-.9.75-1.28,1.74-1.21,1.32.09,2.66-.04,3.97.06.43.03,1.07.39,1.21.76,3.04,7.75,6.03,15.53,9.02,23.3.05.13,0,.3,0,.45ZM210.01,100.31c-1.08,3.35-2.15,6.68-3.23,10.05h6.58c-1.14-3.4-2.24-6.7-3.35-10.05Z"/>
      <path class="cls-1" d="M407.53,119.74s.02.04.02.04c.92-2.57,1.8-5.16,2.76-7.72,1.99-5.28,4.04-10.53,6.01-15.82.32-.87.74-1.17,1.64-1.12,1.62.1,3.64-.48,4.77.29,1.12.76,1.37,2.82,1.95,4.32,2.41,6.2,4.81,12.41,7.21,18.62.18.46.32.93.52,1.55-1.9,0-3.63.04-5.35-.03-.34-.01-.66-.44-.98-.69-.07-.06-.09-.18-.13-.27-.55-1.36-.74-3.28-1.75-3.94-1.09-.7-2.95-.23-4.47-.26-.87-.01-1.74,0-2.6,0q-2.34,0-3.07,2.28c-.94,2.92-.94,2.93-3.96,2.91-.85,0-1.71-.11-2.56-.16ZM423.07,110.36c-1.12-3.66-2.21-7.18-3.39-11.04-1.17,3.9-2.23,7.42-3.31,11.04h6.7Z"/>
      <path class="cls-1" d="M210.39,42.28h-9.2v6.12h9.2v4.57h-14.66c-.03-.21-.08-.4-.08-.59,0-8.09,0-16.17,0-24.35h14.77v4.48h-9.23v5.1h9.21v4.67Z"/>
      <path class="cls-1" d="M292.37,67.9c-5.91-3.44-10.85-3.23-13.87.61-2.54,3.23-2.27,8.93.42,11.91,2.37,2.62,8.48,3.67,13.52-.46,0,1.78.03,3.47-.03,5.16,0,.25-.39.57-.67.72-6.82,3.5-18.33,1.66-20.37-8.94-1.85-9.6,5.8-17.21,15.67-15.83.45.06.91.13,1.36.2,4.3.73,5.28,2.37,3.98,6.63Z"/>
      <path class="cls-1" d="M347.2,113.22c0,1.25-.13,2.34.03,3.37.28,1.78-.63,2.48-2.13,3.04-7.99,3.03-16.48-.87-18.54-8.58-2.22-8.34,3.4-16.04,12-16.49,2.69-.14,5.27.2,7.79,1.18.83.32,1.21.74,1.1,1.66-.15,1.3-.18,2.61-.26,3.95-6.53-3.32-11.02-3.11-13.81.6-2.49,3.31-2.26,8.89.49,11.75,2.99,3.12,7.96,2.98,13.33-.49Z"/>
      <path class="cls-1" d="M195.95,113.22c0,1.23-.1,2.31.02,3.37.19,1.63-.5,2.43-2.01,3.01-6.77,2.58-14.56.15-17.58-5.72-4.15-8.08.15-18.65,10.92-19.3,2.63-.16,5.17.17,7.64,1.13.85.33,1.33.66,1.21,1.72-.15,1.3-.03,2.62-.03,4.33-2.95-2.46-5.93-3.4-9.35-2.66-1.87.41-3.42,1.29-4.6,2.79-2.49,3.18-2.35,8.72.28,11.63,2.98,3.31,7.9,3.24,13.51-.3Z"/>
      <path class="cls-1" d="M484.43,101.57c-5.87-3.63-10.69-3.5-13.81.17-2.59,3.04-2.53,8.79.12,11.75,3.01,3.37,8.19,3.3,13.46-.26,0,1.76.02,3.44-.03,5.12,0,.22-.34.5-.59.62-6.95,3.52-17.21,1.48-19.88-7.56-2.52-8.55,3.21-16.55,12.15-16.78,2.53-.06,5.09.7,7.61,1.21.39.08.88.79.92,1.24.12,1.41.04,2.83.04,4.49Z"/>
      <path class="cls-1" d="M313.48,77.42v9.29h-5.36c-.04-.22-.1-.37-.1-.51,0-8.14,0-16.27,0-24.63,3.9.14,7.82-.55,11.6.84,3.02,1.11,4.38,3.43,4.32,7.13-.05,3.41-1.77,6.02-4.89,6.96-1.72.52-3.57.6-5.56.92ZM313.63,65.71v7.17c3.57,0,4.93-1.2,4.74-4.07-.15-2.37-1.76-3.43-4.74-3.09Z"/>
      <path class="cls-1" d="M369.39,80.14c1.34,2.41,3.33,3.31,5.94,2.82,1.36-.25,2.33-1.02,2.7-2.38.37-1.37-.43-2.27-1.43-2.94-1.05-.7-2.21-1.25-3.31-1.87-1.15-.65-2.32-1.28-3.42-2.01-2.39-1.58-3.46-3.83-3.05-6.68.4-2.75,2.16-4.51,4.65-5.38,3.47-1.21,6.92-1.28,9.94,1.3.41.35.75.8,1.04,1.12-1.01,1.17-1.93,2.23-2.94,3.4-1.51-2.2-3.37-2.8-5.59-1.98-2.11.79-2.51,2.87-.83,4.33.83.72,1.88,1.19,2.84,1.74,1.58.91,3.34,1.59,4.74,2.72,4.52,3.67,3.38,10.42-2.12,12.38-3.6,1.28-7.25,1.16-10.49-1.18-1.88-1.36-1.86-1.82-.34-3.54.54-.61,1.09-1.21,1.67-1.86Z"/>
      <path class="cls-1" d="M444.07,99.71v20.13h-5.25v-20.08h-6.07v-4.5h17.28v4.45h-5.96Z"/>
      <path class="cls-1" d="M312.78,32.88c-.55.47-1.05.89-1.58,1.35-.18-.15-.36-.26-.47-.41-2.93-4.3-8.51-5.34-12.95-3.39-4.22,1.86-6.76,7.21-5.85,12.19,1.26,6.9,7.79,10.69,14.27,8.27,3.51-1.31,5.83-4.75,5.43-8.23h-8.41v-1.98h11.2c.08,4.23-.97,7.93-4.37,10.7-4.29,3.49-14.82,4.01-19.13-3.7-3.31-5.93-1.73-14.16,3.56-18.05,5.5-4.04,14.61-2.7,18.02,2.65.08.13.13.27.27.6Z"/>
      <path class="cls-1" d="M356.5,53.87c-5.95-7.03-11.63-13.75-17.55-20.74v19.81h-2.32v-26.08c5.91,6.96,11.66,13.72,17.63,20.75v-19.6h2.24v25.85Z"/>
      <path class="cls-1" d="M405.46,47.14v-19.11h2.25v25.84c-5.93-7-11.64-13.75-17.58-20.75v19.84h-2.29v-26.09c5.89,6.94,11.59,13.65,17.29,20.37.11-.03.22-.06.33-.1Z"/>
      <path class="cls-1" d="M352,119.85v-24.61h5.27v20.07h8.39v4.54h-13.65Z"/>
      <path class="cls-1" d="M444.07,52.96v-24.94c2.81,0,5.66-.19,8.46.04,7.98.64,12.23,6.56,10.87,14.91-1,6.16-4.35,9.55-10.15,9.95-2.99.21-6.01.04-9.19.04ZM446.49,50.87c2.36,0,4.64.06,6.92-.02,2.79-.1,4.9-1.48,6.11-3.93,2.09-4.22,2.1-8.54.05-12.79-.87-1.81-2.31-3.29-4.3-3.63-2.87-.5-5.82-.6-8.79-.87v21.24Z"/>
      <path class="cls-1" d="M452.91,86.74h-2.16v-26.2c5.92,6.97,11.68,13.77,17.67,20.83v-19.72h2.14v25.79c-5.9-6.97-11.64-13.75-17.64-20.83v20.14Z"/>
      <path class="cls-1" d="M421.2,74.89c3.04,4.04,5.9,7.84,8.85,11.77-1.73.33-2.92.25-3.95-1.29-2.21-3.29-4.64-6.44-7.04-9.6-.38-.5-1.04-.78-1.57-1.15l-.39.34v11.78h-2.31v-25.32c2.71.18,5.42.12,8.03.59,3.3.59,4.94,3.18,4.77,6.8-.16,3.41-2.01,5.45-5.39,5.93-.24.03-.47.08-1,.16ZM417.13,72.96c1.61-.12,3.13-.12,4.61-.37,2.31-.38,3.21-1.59,3.27-4.03.06-2.69-.79-4.12-3.03-4.57-1.56-.32-3.18-.3-4.86-.44v9.41Z"/>
      <path class="cls-1" d="M274.61,53h-2.36v-25.19c2.6.14,5.21.07,7.74.47,3.67.58,5.27,3.09,5.06,7.3-.16,3.1-2.27,5.15-5.66,5.51-.15.02-.29.05-.71.12,2.96,3.94,5.84,7.78,8.8,11.71-1.78.36-2.99.14-4.06-1.47-2.14-3.22-4.53-6.27-6.88-9.35-.38-.5-1.04-.79-1.57-1.17-.12.11-.24.23-.36.34v11.74ZM274.67,29.87v9.41c1.65-.12,3.22-.13,4.75-.37,2.06-.32,3-1.59,3.12-3.89.13-2.42-.74-4.14-2.66-4.59-1.65-.38-3.39-.38-5.22-.56Z"/>
      <path class="cls-1" d="M332.67,86.72h-5.32v-25.04h5.32v25.04Z"/>
      <path class="cls-1" d="M266.83,86.72h-5.3v-25.09h5.3v25.09Z"/>
      <path class="cls-1" d="M297.34,61.6h5.21v25.09h-5.21v-25.09Z"/>
      <path class="cls-1" d="M458.83,119.84h-5.25v-24.62h5.25v24.62Z"/>
      <path class="cls-1" d="M369.03,95.21h5.22v24.59h-5.22v-24.59Z"/>
      <path class="cls-1" d="M517.72,86.62c3.64-8.61,7.27-17.19,11.07-26.15,3.62,8.92,7.1,17.51,10.59,26.13q-2.45.47-3.23-1.59c-.71-1.9-1.48-3.79-2.13-5.71-.28-.82-.7-1.09-1.54-1.07-2.65.05-5.3.06-7.95,0-.89-.02-1.26.35-1.53,1.11-.72,1.95-1.49,3.89-2.24,5.83q-.72,1.86-3.03,1.46ZM524.29,76.14h8.54c-1.39-3.53-2.73-6.92-4.2-10.63-1.52,3.72-2.9,7.09-4.34,10.63Z"/>
      <path class="cls-1" d="M431.82,52.87c-1.93.6-2.83.01-3.3-1.74-.49-1.81-1.36-3.5-1.95-5.29-.3-.92-.73-1.28-1.73-1.26-2.6.07-5.2.06-7.81,0-.84-.02-1.27.23-1.56,1.05-.66,1.87-1.5,3.67-2.12,5.55-.5,1.52-1.22,2.41-3.12,1.65,3.61-8.54,7.24-17.12,11.01-26.04,3.59,8.86,7.07,17.44,10.57,26.07ZM425.3,42.52c-1.41-3.58-2.75-6.96-4.22-10.7-1.54,3.78-2.91,7.18-4.34,10.7h8.56Z"/>
      <path class="cls-1" d="M259.21,26.8c3.6,8.87,7.08,17.47,10.57,26.09q-2.44.4-3.2-1.61c-.7-1.85-1.43-3.69-2.09-5.56-.27-.76-.61-1.14-1.51-1.12-2.7.06-5.41-.03-8.11.07-.48.02-1.16.53-1.37.99-.83,1.85-1.63,3.73-2.22,5.67-.49,1.61-1.38,2.07-3.1,1.58,3.64-8.62,7.28-17.22,11.03-26.1ZM259.06,31.8c-1.55,3.81-2.94,7.22-4.35,10.69h8.51c-1.37-3.51-2.69-6.89-4.17-10.69Z"/>
      <path class="cls-1" d="M433.03,61.6h12.37v2.09h-9.94v7.83h9.92v2.28h-9.97v10.72h9.99v2.17h-12.37v-25.09Z"/>
      <path class="cls-1" d="M493.72,61.61h12.36v2.09h-9.95v7.82h9.93v2.26h-9.96v10.72h9.97v2.24h-12.35v-25.13Z"/>
      <path class="cls-1" d="M276.49,119.8v-24.58h5.14v24.58h-5.14Z"/>
      <path class="cls-1" d="M318.85,52.97v-24.96h12.41v2.08h-9.99v7.82h9.96v2.16h-9.94v10.73h9.97v2.16h-12.41Z"/>
      <path class="cls-1" d="M468.27,52.96v-24.95h12.33v2.04h-9.9v7.85h9.9v2.19h-9.92v10.72h9.92v2.14h-12.35Z"/>
      <path class="cls-1" d="M397.57,61.62h12.33v2.11h-9.98v7.85h9.62v2.22h-9.71v12.89h-2.27v-25.07Z"/>
      <path class="cls-1" d="M481.03,63.77h-6.93v-2.12h16.06v2.05h-6.69v23.01h-2.44v-22.93Z"/>
      <path class="cls-1" d="M366.91,30.14h-6.92v-2.1h16.05v2.04h-6.76v22.9h-2.37v-22.84Z"/>
      <path class="cls-1" d="M541.83,86.73v-25.13h2.29v22.89h8.59v2.24h-10.89Z"/>
      <path class="cls-1" d="M379.55,27.98h2.27v24.99h-2.27v-24.99Z"/>
      <path class="cls-1" d="M417.19,94.03c.56-1.45,1.01-2.72,1.56-3.94.12-.27.59-.52.91-.55.85-.08,1.71-.03,2.82-.03-.56,1.46-1.03,2.78-1.6,4.04-.11.25-.63.43-.98.45-.84.06-1.69.02-2.72.02Z"/>
      <path class="cls-4" d="M54.6,41.72c2.27.64,3.78-.65,5.01-2.88,1.5-2.72,2.38-3.01,5.19-1.67,2.38,1.13,4.21.99,6.16-.94,2.29-2.27,3.46-2.17,5.84.13,1.72,1.67,3.48,2.17,5.64.98.44-.24.93-.42,1.41-.58,1.77-.59,2.73-.37,3.65,1.2,2.63,4.51,2.36,3.79,7.33,3.72,1.98-.03,2.62.48,3.13,2.4.05.2.12.39.13.59.24,2.99,1.82,4.44,4.85,4.82,2.59.33,3.02,1.15,2.98,3.73,0,.41.05.83-.05,1.22-.59,2.48.62,3.89,2.71,4.96,2.83,1.46,3.23,2.59,1.81,5.39-1.18,2.32-.96,4.17.92,6.04,2.24,2.21,2.27,3.28.12,5.56-1.84,1.96-2.28,3.79-1.02,6.3,1.43,2.84,1.03,3.78-1.75,5.27-2.17,1.16-3.43,2.62-2.79,5.23.15.63.05,1.32.05,1.98,0,1.23-.62,2.02-1.76,2.4-.62.21-1.26.43-1.91.51-2.51.3-3.66,1.73-4.05,4.19-.5,3.24-1.56,3.87-4.86,3.37-2.61-.39-3.51.05-4.9,2.36-.34.57-.7,1.12-1.08,1.67-.82,1.19-1.9,1.65-3.3,1.11-.95-.37-1.9-.74-2.83-1.16-1.21-.54-2.28-.29-3.27.49-.6.48-1.18.97-1.76,1.47-1.79,1.56-2.88,1.6-4.69.12-.32-.26-.61-.54-.9-.83-1.54-1.53-3.23-2.07-5.21-.84-.08.05-.19.07-.28.11-3.41,1.36-3.98,1.17-5.85-2.02-1.43-2.44-2.38-2.88-5.14-2.4-2.88.5-4.06-.13-4.53-3.02-.47-2.88-1.91-4.34-4.8-4.79-2.84-.45-3.52-1.68-3.09-4.53.47-3.1.21-3.65-2.45-5.21-.35-.21-.7-.41-1.04-.64-1.76-1.18-2.34-2.3-1.3-4.11,1.73-3.04,1.23-5.36-1.29-7.66-1.44-1.31-1.48-2.66-.04-4.01,2.65-2.48,3.01-4.98,1.23-8.11-.89-1.57-.47-2.77,1.18-3.58,3.09-1.51,4.58-3.51,3.73-7.14-.45-1.91.52-2.82,2.51-3.34.3-.08.58-.21.88-.24,2.64-.22,3.87-1.69,4.36-4.26.63-3.35,1.05-3.52,5.13-3.39Z"/>
      <path class="cls-2" d="M66.76,136.44c.15.03.29.07.44.1,0,.04,0,.08,0,.11-.19-.02-.38-.04-.57-.06.04-.05.09-.1.14-.16Z"/>
      <path class="cls-2" d="M130.66,45.84s-.06.06-.08.08c-.02-.03-.06-.07-.06-.1,0-.03.05-.06.08-.08.02.03.04.07.06.1Z"/>
      <path class="cls-2" d="M58.42,117.56c-.06-.08-.12-.17-.18-.25.11.03.23.06.35.09-.05.05-.11.11-.16.16Z"/>
      <path class="cls-2" d="M22.12,37.49c-.1.05-.19.09-.29.14.06-.08.11-.17.17-.25.04.04.08.08.12.11Z"/>
    </g>
  </g>
</svg>