<?xml version="1.0" standalone="no"?>
<!DOCTYPE svg PUBLIC "-//W3C//DTD SVG 1.1//EN" "http://www.w3.org/Graphics/SVG/1.1/DTD/svg11.dtd">
<svg xmlns="http://www.w3.org/2000/svg" width="24" height="25" viewBox="0 0 24 25" fill="none">
<path d="M15 12.6416L10.5 9.6416V15.6416L15 12.6416Z" stroke="white" stroke-width="1.5" stroke-linecap="round" stroke-linejoin="round"/>
<path d="M2.25 12.6417C2.25 15.4458 2.53781 17.0901 2.75719 17.9358C2.8152 18.1658 2.92694 18.3787 3.08322 18.5572C3.23951 18.7356 3.43589 18.8745 3.65625 18.9623C6.79875 20.1745 12 20.1417 12 20.1417C12 20.1417 17.2012 20.1745 20.3438 18.9623C20.5648 18.875 20.7619 18.7363 20.9189 18.5579C21.0759 18.3794 21.1882 18.1662 21.2466 17.9358C21.4659 17.092 21.7537 15.4458 21.7537 12.6417C21.7537 9.83763 21.4659 8.19325 21.2466 7.34763C21.1888 7.11637 21.0768 6.9022 20.9198 6.72286C20.7628 6.54352 20.5653 6.40417 20.3438 6.31638C17.2012 5.10888 12 5.14169 12 5.14169C12 5.14169 6.79875 5.10888 3.65625 6.32106C3.43466 6.40886 3.23718 6.5482 3.08017 6.72754C2.92317 6.90688 2.81116 7.12106 2.75344 7.35231C2.53781 8.19231 2.25 9.83763 2.25 12.6417Z" stroke="white" stroke-width="1.5" stroke-linecap="round" stroke-linejoin="round"/>
</svg>